<?xml version="1.0" standalone="no"?>
<!DOCTYPE svg PUBLIC "-//W3C//DTD SVG 20010904//EN"
 "http://www.w3.org/TR/2001/REC-SVG-20010904/DTD/svg10.dtd">
<svg version="1.0" xmlns="http://www.w3.org/2000/svg"
 width="512.000000pt" height="512.000000pt" viewBox="0 0 512.000000 512.000000"
 preserveAspectRatio="xMidYMid meet">

<g transform="translate(0.000000,512.000000) scale(0.100000,-0.100000)"
fill="#000000" stroke="none">
<path d="M0 2560 l0 -2560 2560 0 2560 0 0 2560 0 2560 -2560 0 -2560 0 0
-2560z m3240 1240 l0 -360 -600 0 -600 0 0 360 0 360 600 0 600 0 0 -360z
m1480 -620 c11 -11 20 -29 20 -40 0 -19 7 -20 108 -20 l108 0 58 -257 c33
-142 61 -264 64 -272 4 -10 -2 -9 -26 3 -41 21 -64 20 -96 -5 -27 -22 -55 -19
-76 6 -18 21 -53 18 -84 -6 -23 -18 -32 -20 -52 -10 l-24 11 0 -795 0 -795
-40 0 -40 0 0 795 c0 787 0 795 -20 783 -16 -10 -24 -9 -49 10 -38 27 -61 28
-95 1 -27 -22 -55 -19 -76 6 -16 20 -60 19 -88 -1 -14 -9 -22 -11 -22 -4 0 11
106 478 116 513 5 15 19 17 110 17 97 0 104 1 104 20 0 11 9 29 20 40 11 11
29 20 40 20 11 0 29 -9 40 -20z m-723 -466 c69 -55 78 -85 81 -291 l4 -182
-46 -6 c-98 -15 -199 -106 -226 -203 -5 -20 -10 -117 -10 -214 l0 -178 -1220
0 -1220 0 0 173 c0 125 -4 188 -15 224 -30 101 -105 170 -214 196 l-51 12 0
161 c0 181 12 244 57 286 65 62 -44 58 1455 55 l1366 -2 39 -31z m-2831 -579
c102 -51 114 -89 114 -361 l0 -214 1299 0 1300 0 3 233 3 232 30 44 c39 58 94
87 160 84 64 -2 94 -14 139 -53 63 -56 66 -80 66 -539 0 -223 -4 -423 -9 -444
-14 -58 -51 -105 -105 -132 -45 -22 -62 -25 -168 -25 l-118 0 0 -80 0 -80
-100 0 -100 0 0 80 0 80 -1102 -2 -1103 -3 -3 -77 -3 -78 -94 0 -95 0 0 80 0
80 -118 0 c-107 0 -123 2 -170 26 -39 19 -59 38 -80 72 l-27 47 0 455 c0 437
1 456 20 489 38 65 107 104 196 110 8 1 38 -10 65 -24z m-742 -151 c13 -13 16
-46 16 -200 l0 -184 60 0 60 0 0 104 c0 82 3 108 16 120 19 20 29 20 48 0 13
-12 16 -41 16 -148 0 -89 -4 -136 -12 -144 -8 -8 -45 -12 -100 -12 l-88 0 0
-60 0 -60 144 0 c118 0 147 -3 160 -16 22 -22 20 -39 -8 -61 -21 -16 -28 -43
-64 -252 -28 -161 -46 -239 -58 -252 -16 -17 -34 -19 -214 -19 -180 0 -198 2
-214 19 -12 13 -30 91 -58 252 -36 209 -43 236 -64 252 -28 22 -30 39 -8 61
13 13 42 16 160 16 l144 0 0 140 0 140 -90 0 c-108 0 -110 2 -110 124 0 64 4
88 16 100 8 9 19 16 24 16 26 0 40 -34 40 -96 l0 -64 60 0 60 0 0 104 c0 82 3
108 16 120 8 9 19 16 24 16 5 0 16 -7 24 -16z"/>
<path d="M2545 2668 c-3 -13 -4 -232 -3 -487 3 -429 4 -465 21 -475 12 -8 22
-8 35 0 16 10 17 46 20 475 1 255 0 474 -3 487 -4 17 -13 22 -35 22 -22 0 -31
-5 -35 -22z"/>
</g>
</svg>
