<!-- <?xml version="1.0" standalone="no"?>
<!DOCTYPE svg PUBLIC "-//W3C//DTD SVG 20010904//EN"
 "http://www.w3.org/TR/2001/REC-SVG-20010904/DTD/svg10.dtd"> -->
<svg version="1.0" xmlns="http://www.w3.org/2000/svg"
 width="512.000000pt" height="512.000000pt" viewBox="0 0 512.000000 512.000000"
 preserveAspectRatio="xMidYMid meet">
<metadata>
Created by potrace 1.16, written by Peter Selinger 2001-2019
</metadata>
<g transform="translate(0.000000,512.000000) scale(0.100000,-0.100000)"
fill="#000000" stroke="none">
<path d="M4723 5042 l-68 -79 -94 -7 c-51 -3 -1052 -6 -2223 -6 -1172 1 -2132
-1 -2134 -3 -2 -2 227 -238 511 -524 371 -375 522 -522 542 -526 22 -4 25 -3
12 6 -8 7 -57 59 -109 117 -83 92 -217 230 -667 690 l-113 115 1853 -3 c1018
-1 1931 2 2027 6 111 6 -567 10 -1859 10 l-2034 2 -34 40 -35 40 2157 0 c1722
0 2155 -3 2149 -12 -12 -20 -304 -380 -336 -414 l-30 -32 -1649 6 c-1503 5
-1649 4 -1649 -11 0 -10 11 -17 32 -19 32 -3 33 -5 36 -53 2 -27 9 -53 15 -57
14 -9 3001 -11 3046 -2 26 5 31 11 31 34 0 51 9 60 56 60 40 0 44 -2 35 -17
-5 -10 -109 -135 -231 -278 -121 -143 -257 -304 -303 -357 l-82 -98 -47 0
c-45 0 -48 2 -48 25 l0 25 -882 -1 c-486 0 -903 -4 -928 -8 l-45 -8 37 -2 c30
-1 37 -5 40 -23 l3 -23 923 -5 922 -5 -80 -92 -81 -93 -58 0 c-51 0 -61 -3
-86 -30 l-29 -30 -722 0 c-701 0 -723 1 -736 19 -8 11 -55 68 -105 128 -50 59
-127 152 -172 206 l-82 97 1111 0 1111 0 30 35 c17 19 37 35 45 35 8 0 14 5
14 10 0 7 -405 10 -1194 10 l-1193 0 7 -41 c5 -26 20 -54 43 -77 19 -21 109
-124 201 -230 l166 -193 0 -50 0 -50 -51 3 -52 3 -14 50 c-13 45 -32 68 -182
216 -126 124 -176 167 -200 172 -23 5 -75 46 -179 143 -81 75 -232 212 -337
304 -217 191 -475 445 -598 588 -105 121 -144 154 -57 48 148 -182 413 -454
585 -601 117 -100 243 -213 383 -344 108 -102 130 -126 117 -134 -36 -20 -62
-3 -290 192 -231 196 -466 403 -662 579 l-203 183 0 -59 c0 -56 16 -92 33 -75
4 3 7 2 7 -4 0 -6 30 -37 68 -69 37 -32 58 -47 47 -34 l-20 25 29 -25 c54 -48
56 -59 56 -320 0 -132 -4 -240 -8 -240 -5 0 -54 32 -110 70 -86 59 -102 67
-102 50 0 -14 30 -39 110 -91 l111 -72 -2 -78 c-1 -44 -5 -79 -8 -79 -4 0 -52
27 -109 59 l-102 59 0 -159 c0 -148 1 -159 20 -169 17 -9 20 -21 20 -92 0 -76
-1 -80 -21 -75 -13 3 -19 1 -16 -6 2 -7 46 -28 98 -48 62 -23 95 -41 97 -52 5
-23 -3 -22 -108 12 l-90 29 2 -241 3 -242 85 -11 c47 -7 91 -13 98 -13 6 -1
12 -8 12 -17 0 -14 -8 -16 -50 -10 -27 3 -72 9 -99 12 l-50 6 2 -121 2 -121
51 0 c87 0 144 -11 144 -28 0 -13 -15 -14 -100 -9 l-100 5 0 -69 0 -69 40 0
c22 0 40 -4 40 -10 0 -5 -18 -10 -40 -10 -22 0 -40 -5 -40 -10 0 -7 30 -8 85
-4 58 4 85 2 85 -5 0 -6 -17 -11 -39 -11 -61 0 -131 -12 -131 -22 0 -9 123 -4
177 8 18 3 23 0 23 -15 0 -17 -11 -20 -100 -26 l-100 -7 0 -169 0 -169 22 5
c87 21 174 33 183 24 17 -16 -9 -28 -105 -50 -52 -11 -96 -22 -99 -25 -15 -15
20 -13 104 6 53 12 98 20 101 17 2 -2 1 -36 -2 -75 l-7 -70 -88 -23 c-90 -23
-117 -34 -108 -43 2 -3 43 6 89 19 47 14 91 25 98 25 10 0 12 -18 10 -72 -3
-66 -5 -72 -28 -79 -14 -4 -58 -18 -97 -29 l-73 -22 0 -104 c0 -57 4 -104 8
-104 4 0 45 16 91 35 92 39 101 41 101 21 0 -7 -38 -29 -88 -50 -97 -40 -119
-52 -111 -60 3 -3 47 12 98 34 51 22 96 40 102 40 10 0 12 -91 3 -137 -5 -26
-19 -36 -105 -78 -54 -27 -99 -54 -99 -60 0 -6 49 14 110 44 l110 56 1 1280
c0 704 3 1271 7 1260 10 -27 5 -2498 -5 -2609 l-8 -90 -105 -63 c-74 -44 -106
-69 -108 -84 l-4 -22 34 21 c59 36 453 274 461 279 4 2 7 -29 7 -69 l0 -74
-250 -174 c-173 -121 -250 -181 -250 -193 0 -16 7 -14 47 15 27 19 72 51 101
72 178 125 486 346 602 433 74 55 229 167 345 248 247 173 216 149 219 170 1
9 7 20 13 23 7 5 8 21 3 47 -4 22 -8 34 -9 28 0 -7 -5 -13 -11 -13 -6 0 -10
35 -10 85 l0 85 40 0 40 0 0 -240 0 -240 211 0 c154 0 208 -3 203 -11 -5 -9
-73 -10 -245 -7 l-238 5 -30 -31 c-17 -18 -31 -35 -31 -39 0 -4 113 -7 250 -7
138 0 250 -3 250 -8 0 -4 -7 -18 -16 -30 -15 -22 -18 -22 -278 -22 -260 0
-263 0 -283 -22 -36 -41 -37 -54 -1 -20 l35 33 141 -3 142 -3 -61 -75 c-103
-126 -478 -659 -496 -705 -4 -12 4 -15 36 -15 23 0 41 -3 41 -6 0 -6 -51 -78
-183 -256 -32 -43 -53 -78 -48 -78 5 0 65 76 133 170 l123 170 203 0 204 0
-76 -144 c-84 -160 -102 -200 -86 -194 5 1 48 77 94 168 l84 165 341 3 341 2
0 -27 c-1 -16 -11 -91 -24 -168 -13 -77 -22 -142 -20 -144 14 -15 25 33 48
215 9 64 17 118 18 119 9 7 547 15 601 9 l66 -7 4 -71 3 -71 2 78 2 77 284 0
284 0 73 -171 c68 -160 84 -188 95 -176 3 2 -29 80 -70 173 l-74 169 196 8
c108 4 201 12 205 16 5 5 6 18 2 30 -18 58 -359 596 -442 699 l-34 42 119 0
119 0 155 -182 c84 -101 180 -216 212 -255 54 -68 76 -86 76 -64 0 15 -345
429 -407 489 l-24 22 -560 0 -559 0 0 25 c0 29 -73 26 625 25 259 0 476 4 484
9 8 5 11 16 6 30 -7 22 4 24 103 25 12 0 22 4 22 8 0 4 -36 8 -79 8 -79 0 -80
0 -84 -27 l-4 -28 -2 28 -1 27 -539 0 c-364 0 -542 3 -546 10 -5 8 187 10 619
8 673 -3 636 -6 636 48 0 24 0 24 26 8 21 -14 51 -17 160 -17 l134 0 0 -26 c1
-53 10 -187 16 -228 3 -29 12 -46 26 -54 15 -8 19 -18 16 -44 -3 -28 0 -35 17
-39 20 -5 241 -204 448 -403 86 -83 107 -108 107 -131 0 -44 16 -52 109 -52
l86 0 122 -122 c89 -89 123 -117 123 -103 1 13 -39 58 -107 122 l-108 102 108
1 107 0 0 105 0 105 -195 0 -194 0 -6 -33 c-3 -17 -6 -59 -8 -92 -3 -47 -4
-40 -6 30 l-2 90 -127 105 c-363 301 -474 402 -459 417 3 2 74 -56 159 -129
84 -73 211 -180 281 -237 70 -57 127 -111 128 -120 0 -12 3 -11 9 4 5 11 9
144 9 296 1 267 2 277 22 295 19 17 41 19 205 22 l184 3 -2 176 -3 176 -39 11
c-22 6 -41 17 -44 25 -3 10 0 12 14 7 37 -14 74 -18 74 -8 0 15 -275 99 -350
107 -101 10 -191 36 -187 55 2 12 15 14 62 12 79 -4 142 -16 313 -63 79 -21
148 -39 153 -39 5 0 9 12 9 28 0 27 -1 28 -172 71 -95 24 -177 48 -182 52 -17
15 -1 19 35 9 18 -5 88 -21 154 -35 66 -14 131 -29 144 -32 17 -4 22 -2 19 8
-3 8 -18 16 -34 19 -17 3 -30 12 -32 23 -3 16 1 17 32 11 24 -4 36 -2 36 5 0
6 -16 11 -35 11 -38 0 -41 6 -23 45 7 17 19 25 35 25 22 0 24 3 21 48 l-3 47
-42 3 -43 3 -1 -38 -1 -38 -8 39 c-4 22 -16 47 -26 56 -38 32 -28 40 51 40
l75 0 0 49 0 48 -61 7 c-34 3 -92 6 -128 6 -105 0 -171 11 -171 27 0 12 28 13
180 7 l180 -7 0 222 c0 132 -4 221 -9 221 -11 0 -269 -37 -319 -45 -28 -5 -33
-3 -30 11 2 14 28 22 126 40 68 13 148 26 177 29 l54 7 1 214 c0 118 -2 214
-4 214 -2 0 -79 -22 -171 -50 -92 -27 -171 -50 -175 -50 -5 0 -6 8 -3 18 3 12
51 32 179 72 l174 55 0 112 c0 62 -2 113 -5 113 -3 0 -24 -9 -46 -21 -56 -28
-47 -2 9 29 66 37 49 44 -24 12 -58 -27 -77 -30 -162 -30 l-97 0 163 77 c89
42 162 83 162 90 0 7 -2 13 -4 13 -5 0 -238 -110 -306 -145 -47 -24 -50 -24
-50 -6 0 15 40 39 178 109 112 57 178 96 180 107 3 14 -4 12 -45 -11 -41 -24
-45 -25 -30 -7 10 12 32 27 48 33 16 7 29 17 29 22 0 5 -4 6 -10 3 -6 -4 -10
7 -10 24 0 17 5 31 10 31 6 0 10 25 10 55 l0 54 -142 3 -143 3 105 66 c58 37
122 77 142 90 20 13 37 32 38 42 0 9 -2 17 -4 17 -3 0 -76 -47 -163 -104 -194
-127 -203 -132 -203 -112 0 17 50 56 236 181 71 49 130 91 132 96 2 4 -7 5
-20 2 l-23 -5 23 21 c13 11 22 25 20 30 -4 13 -163 -104 -163 -121 0 -11 -129
-107 -187 -139 -17 -9 -18 3 -17 203 l0 213 140 125 c76 69 160 143 185 165
31 27 45 47 43 60 -3 15 -49 -23 -214 -176 -115 -107 -254 -235 -310 -285
-415 -376 -665 -597 -671 -591 -3 2 53 58 123 123 251 233 393 372 730 713
l343 346 0 158 c0 86 -3 157 -7 156 -5 0 -82 -88 -173 -196 -283 -335 -495
-579 -835 -963 -110 -124 -265 -301 -345 -393 l-144 -167 -92 0 c-91 0 -104 5
-104 40 0 10 75 99 350 416 303 348 456 528 724 852 125 150 256 304 293 342
l65 70 -30 0 c-26 0 -42 -12 -99 -78z m-4632 -519 c13 -16 12 -17 -3 -4 -10 7
-18 15 -18 17 0 8 8 3 21 -13z m2507 -93 l1472 0 0 -40 0 -40 -1520 0 -1520 0
0 39 c0 45 10 52 60 46 19 -3 698 -5 1508 -5z m-2307 -87 c13 -16 12 -17 -3
-4 -10 7 -18 15 -18 17 0 8 8 3 21 -13z m90 -98 l119 -96 0 -304 0 -305 -52
30 c-29 17 -86 49 -125 71 l-73 41 0 329 c0 181 3 329 6 329 4 0 60 -43 125
-95z m-40 58 c13 -16 12 -17 -3 -4 -17 13 -22 21 -14 21 2 0 10 -8 17 -17z
m4386 -320 c-1 -60 -3 -11 -3 107 0 118 2 167 3 108 2 -60 2 -156 0 -215z
m-17 84 l0 -213 -62 -44 c-63 -44 -192 -130 -215 -144 -7 -4 -13 -5 -13 -1 0
3 38 30 85 61 80 52 102 71 93 79 -3 4 -111 -68 -193 -129 -45 -34 -67 -53
-47 -42 6 4 12 5 12 3 0 -4 -21 -19 -102 -71 l-28 -18 0 159 0 160 233 206
c127 114 233 207 235 207 1 0 2 -96 2 -213z m-4166 -647 c5 -723 -1 -1290 -16
-1290 -4 0 -8 451 -8 1002 0 590 4 998 9 993 5 -6 11 -318 15 -705z m194 530
l52 -45 0 -173 0 -174 -97 67 c-158 109 -143 78 -143 298 l0 189 68 -59 c37
-32 91 -78 120 -103z m4258 115 c-11 -8 -25 -15 -30 -15 -6 1 0 7 14 15 32 19
40 18 16 0z m-1356 -163 c0 -31 -21 -32 -1147 -32 -1116 0 -1123 0 -1123 20 0
20 7 20 1135 20 624 0 1135 -4 1135 -8z m-2772 -61 l42 -35 0 -163 c0 -90 -3
-163 -6 -163 -4 0 -28 16 -55 36 l-49 36 0 169 c0 134 3 169 13 163 6 -4 31
-24 55 -43z m3356 -147 c-1 -178 9 -157 -115 -247 l-77 -56 -7 140 c-4 77 -3
144 1 149 38 36 190 170 194 170 3 0 5 -70 4 -156z m518 -216 c4 -440 -4 -830
-15 -806 -5 9 -7 84 -5 167 2 96 -1 151 -7 152 -5 0 -4 3 3 6 6 2 12 8 12 13
0 5 -18 1 -40 -7 -30 -12 -37 -19 -28 -26 10 -7 9 -8 -3 -4 -9 3 -52 -7 -95
-23 -199 -70 -364 -108 -304 -70 30 19 350 121 360 115 5 -3 10 -2 10 3 0 10
45 32 76 36 18 3 19 15 19 174 0 95 -1 172 -1 172 -1 0 -64 -30 -140 -66 -218
-104 -363 -159 -328 -125 5 5 112 59 237 119 l228 109 -1 216 c0 130 3 217 9
217 5 0 11 -148 13 -372z m-32 328 c0 -12 -48 -46 -350 -241 -127 -82 -120
-79 -120 -60 0 9 50 48 123 95 67 43 171 111 231 149 60 39 110 71 112 71 2 0
4 -6 4 -14z m70 -171 c0 -103 -4 -165 -10 -165 -6 0 -10 59 -10 158 0 139 3
172 17 172 2 0 3 -74 3 -165z m186 -62 c-3 -7 -10 -13 -16 -13 -15 0 -13 213
3 229 10 10 13 -9 15 -95 1 -59 0 -114 -2 -121z m-4039 -25 c-1 -46 -3 -9 -3
82 0 91 2 128 3 83 2 -46 2 -120 0 -165z m117 99 c9 -80 7 -617 -3 -617 -5 0
-29 9 -55 20 l-46 21 0 355 0 355 49 -41 c43 -37 49 -46 55 -93z m3884 11 c-2
-78 -7 -113 -15 -116 -10 -3 -13 24 -13 112 0 98 2 116 15 116 13 0 15 -17 13
-112z m-226 35 c-2 -38 -7 -71 -10 -75 -4 -4 -23 -8 -42 -9 -19 -2 -47 -9 -62
-16 -23 -11 -28 -20 -28 -48 0 -49 -25 -60 -140 -60 l-95 0 -12 -35 c-6 -19
-12 -74 -12 -122 -1 -76 -4 -89 -20 -98 -39 -20 -41 -14 -41 114 0 98 3 125
14 129 15 6 311 193 401 253 27 19 50 34 50 34 0 0 -1 -30 -3 -67z m-3460 27
c16 0 66 -41 163 -134 l140 -133 -32 -7 c-41 -9 -57 0 -170 96 -51 43 -95 78
-100 78 -4 0 -24 17 -46 38 -29 28 -36 32 -30 15 19 -50 77 -116 168 -188 87
-70 100 -76 128 -71 102 21 95 24 123 -39 15 -31 24 -67 22 -80 -4 -18 4 -33
28 -56 l34 -33 0 -192 0 -193 -61 35 c-34 19 -65 32 -68 28 -3 -3 -8 -83 -11
-177 -4 -129 -9 -178 -20 -194 -26 -40 -41 -23 -19 20 7 12 16 25 22 28 6 4 5
135 -1 360 l-10 354 5 -346 c3 -260 2 -349 -7 -354 -7 -4 -18 -21 -26 -39 -11
-27 -13 29 -15 414 -1 245 -4 433 -6 418 -5 -33 -7 -34 -44 -7 l-29 20 0 -103
0 -103 35 -24 35 -24 0 -118 c0 -74 -4 -119 -10 -119 -6 0 -46 18 -90 40 l-80
40 0 238 0 237 -83 67 c-129 104 -127 102 -127 158 l0 50 60 0 c35 0 60 4 60
10 0 7 6 7 19 0 11 -5 30 -10 43 -10z m2208 -35 c0 -13 -103 -15 -865 -15
-762 0 -865 2 -865 15 0 13 103 15 865 15 762 0 865 -2 865 -15z m-2716 -110
l159 -110 -56 -3 c-52 -3 -61 0 -139 49 -138 86 -138 87 -138 137 0 24 4 42 8
40 4 -1 79 -52 166 -113z m-234 -175 l0 -128 -122 54 -123 53 -3 145 -3 144
126 -70 125 -71 0 -127z m4370 201 c0 -50 -4 -74 -16 -85 -27 -28 -34 -18 -34
53 0 61 3 72 22 85 12 9 24 16 25 16 2 0 3 -31 3 -69z m-865 -221 c-8 -9 -15
-23 -15 -31 0 -8 -20 -29 -45 -47 l-45 -32 0 -634 c0 -528 -2 -634 -13 -630
-11 4 -15 52 -20 209 -4 112 -12 216 -17 230 -6 16 -10 224 -10 545 l0 518 83
76 82 75 8 -131 c6 -111 5 -133 -8 -148z m-3875 229 c0 -10 -7 -19 -15 -19
-15 0 -21 31 -9 43 11 10 24 -3 24 -24z m-72 -62 c3 -30 0 -36 -12 -31 -10 4
-16 19 -16 41 0 47 24 38 28 -10z m4610 -128 c-19 -12 -24 117 -6 150 12 22
13 16 16 -59 2 -60 -1 -86 -10 -91z m-3918 -8 c0 -38 -2 -43 -20 -38 -10 3
-21 0 -23 -7 -3 -6 -16 -1 -33 15 -16 15 -48 36 -71 48 l-43 21 0 65 0 64 95
-62 95 -62 0 -44z m468 41 c30 -22 32 -27 32 -84 0 -72 2 -72 -112 5 l-77 52
-1 78 0 78 63 -53 c34 -29 77 -64 95 -76z m-1078 108 c8 -5 12 -12 9 -15 -8
-8 -39 5 -39 16 0 11 11 11 30 -1z m4486 -157 c-3 -8 -10 -11 -16 -8 -15 9
-13 162 3 168 9 3 13 -17 15 -71 2 -41 0 -82 -2 -89z m-36 67 c0 -53 -4 -90
-10 -90 -6 0 -10 37 -10 90 0 53 4 90 10 90 6 0 10 -37 10 -90z m-4490 33 c0
-13 -4 -23 -10 -23 -5 0 -10 17 -10 38 0 27 3 33 10 22 5 -8 10 -25 10 -37z
m72 -107 c2 -67 2 -123 1 -125 -1 -1 -14 1 -30 6 l-28 10 -3 126 -3 125 30
-11 29 -11 4 -120z m1268 36 c0 -7 -74 55 -95 79 -11 13 6 1 38 -26 31 -27 57
-51 57 -53z m2781 56 c-9 -27 -204 -163 -210 -146 -2 6 3 14 10 19 8 4 57 39
109 78 52 39 96 70 97 71 1 0 -1 -10 -6 -22z m-4121 -108 c0 -83 -1 -88 -20
-83 -18 5 -20 14 -20 93 0 83 1 88 20 83 18 -5 20 -14 20 -93z m4457 18 c-2
-18 -4 -6 -4 27 0 33 2 48 4 33 2 -15 2 -42 0 -60z m-749 -679 c-7 -4 -14 -23
-16 -41 -6 -55 -21 -69 -22 -19 0 38 -2 43 -20 38 -20 -5 -20 0 -20 344 l0
350 43 39 42 39 3 -371 c2 -284 -1 -373 -10 -379z m722 691 c0 -49 -3 -61 -20
-70 -19 -10 -20 -8 -20 48 0 53 11 82 32 82 4 0 8 -27 8 -60z m-3603 -247 c-1
-54 -3 -10 -3 97 0 107 2 151 3 98 2 -54 2 -142 0 -195z m3299 243 c-6 -33
-11 -37 -72 -56 -103 -31 -105 -25 -14 39 47 33 87 58 89 56 2 -2 0 -20 -3
-39z m-3316 -151 c0 -102 -1 -185 -3 -185 -3 0 -136 59 -279 123 -54 25 -76
43 -65 53 3 3 19 -2 36 -10 16 -9 32 -16 36 -16 3 0 5 22 5 50 0 38 -4 52 -19
60 -11 5 -21 10 -23 10 -2 0 -1 -21 1 -46 2 -32 0 -44 -8 -40 -17 11 -14 105
3 112 8 3 35 -3 59 -14 43 -19 45 -22 52 -72 5 -34 3 -56 -4 -63 -8 -8 -11 1
-11 35 0 33 -5 48 -16 52 -24 9 -24 9 -24 -41 l0 -48 108 -51 107 -50 2 88 1
88 -44 39 c-37 32 -44 44 -44 75 l0 36 65 0 65 0 0 -185z m2490 108 c0 -70 -2
-79 -27 -105 -20 -21 -36 -28 -65 -28 -21 0 -38 2 -38 5 0 14 33 81 47 97 15
16 15 18 0 18 -9 0 -23 -10 -31 -21 l-15 -22 -611 2 c-501 2 -611 0 -608 -11
4 -10 120 -13 601 -16 595 -2 597 -2 597 -23 l0 -20 -791 2 c-788 2 -790 2
-805 23 -14 21 -13 21 46 24 l60 3 0 44 0 45 739 0 740 0 15 21 c15 22 58 36
114 38 l32 1 0 -77z m1050 43 c0 -19 -5 -47 -12 -63 -12 -27 -12 -26 -18 27
-6 62 -5 70 16 70 9 0 14 -11 14 -34z m-3831 -13 c2 -1 -8 -7 -22 -12 -23 -9
-26 -16 -30 -68 -2 -45 -4 -39 -5 30 l-2 87 28 -17 c15 -9 29 -18 31 -20z
m3764 -111 c-21 -15 -20 -17 -26 70 -4 62 -3 67 17 70 19 3 21 -2 24 -62 2
-53 0 -67 -15 -78z m-3133 -44 c0 -37 -1 -38 -22 -27 -13 7 -49 29 -80 51 -31
21 -62 38 -67 38 -7 0 -12 -51 -13 -142 -2 -127 -3 -132 -6 -43 -2 55 0 141 3
191 l7 91 89 -60 c86 -59 89 -62 89 -99z m3087 55 c-2 -21 -4 -4 -4 37 0 41 2
58 4 38 2 -21 2 -55 0 -75z m-667 52 l0 -35 -120 0 -120 0 0 35 0 35 120 0
120 0 0 -35z m647 -57 c-2 -18 -4 -6 -4 27 0 33 2 48 4 33 2 -15 2 -42 0 -60z
m471 39 c2 -28 -1 -37 -12 -37 -12 0 -16 11 -16 41 0 52 24 48 28 -4z m-4330
-57 c28 -12 52 -28 52 -36 0 -9 -29 -1 -92 26 -157 64 -168 70 -168 85 0 14
22 6 208 -75z m4626 -77 c-37 -27 -44 -17 -44 62 0 71 1 75 28 89 l27 14 3
-76 c2 -63 0 -79 -14 -89z m-4334 76 c0 -60 -3 -80 -12 -77 -9 3 -14 31 -16
81 -2 64 0 77 13 77 12 0 15 -15 15 -81z m3470 71 c0 -5 -10 -10 -22 -10 -19
0 -20 2 -8 10 19 13 30 13 30 0z m-3453 -112 c-2 -24 -4 -7 -4 37 0 44 2 63 4
43 2 -21 2 -57 0 -80z m35 7 c-6 -98 -20 -75 -21 35 -1 63 1 72 12 60 10 -11
13 -36 9 -95z m3901 -85 c-4 -19 -11 -26 -31 -28 -15 -1 -42 -7 -60 -13 -18
-6 -35 -9 -38 -7 -9 10 19 69 37 79 24 13 26 42 2 35 -147 -45 -153 -46 -199
-39 l-47 8 164 75 164 76 6 -81 c3 -44 4 -91 2 -105z m317 180 c0 -14 -13 -17
-100 -24 -54 -4 -70 -3 -57 5 37 22 157 36 157 19z m-935 -18 l40 -8 -27 -24
c-25 -21 -28 -31 -28 -82 0 -45 -5 -63 -20 -78 -11 -11 -24 -20 -30 -20 -6 0
-10 43 -10 110 0 122 -5 116 75 102z m-3585 -120 c0 -9 -6 -12 -17 -8 -179 65
-233 90 -233 107 0 15 18 10 125 -33 80 -33 125 -56 125 -66z m129 65 c1 -10
-3 -15 -9 -12 -5 3 -10 21 -9 38 0 27 2 29 9 12 5 -11 9 -28 9 -38z m811 -35
c0 -54 0 -55 -20 -37 -15 14 -20 31 -20 73 0 54 0 55 20 37 15 -14 20 -31 20
-73z m2546 -1239 c-2 -2 -19 0 -37 5 l-34 8 -3 632 -2 631 37 26 38 25 3 -661
c1 -364 0 -664 -2 -666z m-3313 1275 c3 -21 2 -38 -4 -38 -5 0 -9 19 -9 42 0
49 5 47 13 -4z m177 -45 c0 -55 -3 -74 -12 -71 -9 3 -14 31 -16 81 -2 66 -1
76 13 71 12 -5 15 -23 15 -81z m3292 18 c-3 -50 -8 -71 -19 -75 -12 -5 -13 3
-7 52 5 48 18 92 27 92 1 0 1 -31 -1 -69z m698 -22 l0 -90 -35 -15 c-19 -7
-36 -14 -37 -14 -2 0 -1 40 2 90 4 74 8 92 25 104 40 30 45 21 45 -75z m180
51 c0 -25 -5 -40 -12 -40 -7 0 -23 -3 -35 -6 -21 -6 -23 -3 -23 34 0 37 3 41
28 45 15 2 30 5 35 6 4 0 7 -17 7 -39z m-1350 5 c0 -25 0 -25 -97 -25 -54 0
-108 -3 -120 -6 -20 -6 -23 -3 -23 25 l0 31 120 0 120 0 0 -25z m507 -57 c-2
-18 -4 -6 -4 27 0 33 2 48 4 33 2 -15 2 -42 0 -60z m33 52 c0 -16 -4 -30 -10
-30 -11 0 -14 43 -3 53 11 12 13 8 13 -23z m17 -37 c-2 -16 -4 -5 -4 22 0 28
2 40 4 28 2 -13 2 -35 0 -50z m703 13 c0 -72 -12 -102 -44 -108 l-26 -5 0 83
0 84 35 0 35 0 0 -54z m-773 -38 c-2 -18 -4 -6 -4 27 0 33 2 48 4 33 2 -15 2
-42 0 -60z m-3794 -297 c11 -511 9 -781 -5 -786 -7 -2 -34 -6 -60 -10 l-48 -6
0 579 0 580 53 -21 54 -21 6 -315z m3055 -468 l2 37 105 0 105 0 0 -40 c0 -42
-18 -55 -27 -20 -5 18 -14 20 -89 20 l-84 0 0 -75 c0 -67 -2 -75 -19 -75 -28
0 -31 47 -31 511 0 313 3 425 13 446 10 22 13 -49 17 -408 3 -238 6 -417 8
-396z m689 805 c-3 -8 -6 -5 -6 6 -1 11 2 17 5 13 3 -3 4 -12 1 -19z m-16 -91
c-13 -13 -15 15 -3 53 7 24 7 23 10 -9 2 -18 -1 -38 -7 -44z m-733 -11 c3 -62
1 -68 -13 -56 -12 10 -19 10 -27 2 -8 -8 -48 -12 -105 -12 l-93 0 0 64 c0 42
4 66 13 70 6 3 59 4 117 3 l105 -2 3 -69z m1662 55 c0 -17 -42 -41 -72 -41
-21 0 -2 45 22 51 42 12 50 10 50 -10z m-4566 -11 l46 -19 0 -403 c0 -222 3
-453 6 -514 l7 -111 -58 -7 c-32 -3 -60 -4 -63 -1 -3 3 -8 246 -10 540 -5 600
-12 551 72 515z m283 -56 c84 -37 149 -72 146 -77 -9 -15 -60 0 -195 60 -100
44 -128 61 -128 76 0 11 5 17 13 14 6 -2 80 -35 164 -73z m1533 16 l0 -60
-290 0 -290 0 0 60 0 60 290 0 290 0 0 -60z m355 50 c5 -8 -44 -10 -154 -8
-101 2 -163 -1 -165 -7 -3 -5 -5 -2 -5 8 -1 15 13 17 158 17 101 0 162 -4 166
-10z m33 -268 l-3 -279 25 1 c23 1 25 4 21 41 -1 22 -7 42 -11 45 -15 10 -22
102 -15 205 l7 105 79 0 79 0 -2 -187 -3 -187 -25 -7 -25 -7 28 -1 c15 -1 27
-5 27 -11 0 -6 -97 -10 -270 -10 -173 0 -270 4 -270 10 0 6 3 9 8 9 24 -4 52
2 47 11 -3 6 0 10 8 10 8 0 17 -6 20 -14 3 -7 16 -13 29 -12 20 1 23 6 23 44
0 52 -18 56 -26 5 l-6 -38 -2 47 c-1 58 -21 76 -21 19 0 -37 -2 -41 -25 -41
l-25 0 0 180 0 180 150 0 150 0 0 -141 c0 -116 -2 -140 -14 -136 -9 4 -16 -4
-20 -25 -9 -47 -7 -98 4 -98 6 0 10 25 10 55 0 30 5 55 10 55 6 0 8 -20 4 -55
-5 -38 -3 -55 5 -55 12 0 18 216 13 443 -1 76 1 117 8 117 7 0 10 -90 8 -278z
m182 268 c0 -6 -35 -10 -86 -10 -54 0 -83 4 -79 10 3 6 42 10 86 10 46 0 79
-4 79 -10z m40 -277 c0 -190 -4 -283 -10 -273 -13 21 -13 560 0 560 6 0 10
-102 10 -287z m210 277 c0 -6 -40 -10 -100 -10 -60 0 -100 4 -100 10 0 6 40
10 100 10 60 0 100 -4 100 -10z m583 -97 c4 -58 7 -175 7 -258 0 -127 -3 -154
-15 -159 -13 -5 -15 17 -15 162 0 196 -11 364 -20 293 -3 -26 -11 -46 -19 -49
-10 -3 -12 0 -8 12 5 12 0 16 -19 16 -21 0 -25 -4 -22 -22 2 -19 8 -23 36 -20
17 1 32 -2 32 -8 0 -5 -21 -10 -46 -10 l-46 0 7 66 c6 61 5 66 -12 62 -16 -3
-18 -12 -14 -66 3 -57 1 -62 -18 -62 -12 0 -21 5 -21 10 0 7 -7 7 -21 0 -11
-7 -22 -10 -24 -8 -2 2 -7 36 -10 76 l-8 72 125 0 125 0 6 -107z m557 77 c0
-8 -209 -120 -225 -120 -3 0 -5 4 -5 10 0 9 204 118 223 119 4 1 7 -3 7 -9z
m-2980 -535 c0 -528 0 -535 -20 -535 -19 0 -20 -7 -20 -126 0 -114 -2 -125
-17 -122 -16 3 -18 19 -21 141 -2 132 -2 137 18 137 11 0 20 4 20 9 0 5 -9 7
-20 4 -11 -3 -20 0 -20 6 0 6 9 11 20 11 11 0 20 5 20 11 0 12 -112 8 -247 -8
-31 -3 -53 -2 -53 4 0 5 64 14 141 20 98 8 144 15 150 25 5 7 8 63 7 123 l-3
110 -42 3 c-31 2 -43 8 -43 19 0 12 8 14 45 9 l45 -7 0 54 0 54 -42 11 -43 11
43 -5 c51 -5 49 11 -3 20 -20 4 -33 11 -29 17 3 5 21 7 41 3 32 -6 35 -5 30
10 -4 10 -7 71 -7 137 l0 119 -40 16 c-22 9 -40 22 -40 30 0 11 10 10 50 -6
l50 -20 0 125 c0 104 2 125 15 125 13 0 15 -66 15 -535z m1370 500 l0 -26
-155 3 c-130 3 -155 1 -159 -12 -2 -8 -3 -4 -2 10 3 49 8 50 167 50 l149 0 0
-25z m220 0 c0 -26 0 -26 -82 -23 -77 3 -83 5 -86 26 -3 21 -1 22 82 22 85 0
86 0 86 -25z m250 -10 l0 -35 -100 0 -100 0 0 35 0 35 100 0 100 0 0 -35z
m1214 -17 c3 -29 6 -83 6 -119 0 -64 -1 -67 -26 -73 -15 -4 -27 -6 -29 -4 -1
2 -5 53 -7 115 -6 114 -1 133 33 133 12 0 18 -13 23 -52z m113 -100 c-2 -29
-3 -8 -3 47 0 55 1 79 3 53 2 -26 2 -71 0 -100z m-3737 83 l105 -47 0 -319 1
-320 -6 300 c-5 279 -6 300 -23 303 -10 2 -57 18 -105 36 -82 31 -87 35 -90
65 -2 17 0 31 5 30 4 0 55 -22 113 -48z m3763 -28 c-6 -109 -11 -113 -12 -10
-1 48 3 87 7 87 5 0 7 -35 5 -77z m-227 -10 c-3 -3 -44 -7 -93 -10 l-88 -4 90
44 90 43 3 -34 c2 -19 1 -36 -2 -39z m251 -35 c-2 -24 -4 -7 -4 37 0 44 2 63
4 43 2 -21 2 -57 0 -80z m53 88 c0 -46 -13 -116 -21 -116 -10 0 -12 123 -2
133 13 14 23 6 23 -17z m31 -34 c-4 -69 -21 -78 -21 -11 0 53 7 76 19 64 3 -3
4 -27 2 -53z m144 27 c-4 -5 -10 -9 -16 -9 -5 0 -32 -11 -59 -24 -46 -22 -50
-23 -50 -6 0 17 32 33 100 53 19 5 32 -2 25 -14z m-4678 -221 c-1 -46 -3 -11
-3 77 0 88 2 125 3 83 2 -42 2 -114 0 -160z m33 165 c0 -32 3 -103 6 -158 5
-68 3 -97 -4 -90 -13 13 -25 305 -12 305 6 0 10 -26 10 -57z m2508 50 c-42 -2
-114 -2 -160 0 -46 1 -11 3 77 3 88 0 125 -2 83 -3z m245 0 c-24 -2 -62 -2
-85 0 -24 2 -5 4 42 4 47 0 66 -2 43 -4z m-2721 -150 c4 -139 3 -162 -6 -152
-8 10 -16 299 -7 299 5 0 11 -66 13 -147z m25 -38 l0 -130 -8 90 c-10 124 -9
227 1 195 4 -14 8 -83 7 -155z m46 20 c3 -94 2 -128 -3 -90 -8 62 -13 252 -6
244 2 -2 6 -71 9 -154z m2442 145 c18 -5 -30 -8 -122 -9 -96 -1 -153 3 -153 9
0 12 229 12 275 0z m245 0 c0 -6 -35 -10 -85 -10 -50 0 -85 4 -85 10 0 6 35
10 85 10 50 0 85 -4 85 -10z m255 0 c4 -6 -32 -10 -99 -10 -64 0 -106 4 -106
10 0 6 40 10 99 10 56 0 103 -4 106 -10z m1255 -59 c0 -39 -4 -73 -10 -76 -6
-4 -10 22 -10 69 0 44 4 76 10 76 6 0 10 -30 10 -69z m348 57 c-5 -13 -76 -40
-92 -35 -6 2 9 13 34 25 53 24 63 26 58 10z m-4521 -215 c-1 -43 -3 -10 -3 72
0 83 2 118 3 78 2 -40 2 -107 0 -150z m2093 192 c0 -13 -37 -15 -275 -15
l-275 0 0 -375 c0 -212 -4 -375 -9 -375 -11 0 -23 350 -19 592 l3 188 288 0
c248 0 287 -2 287 -15z m-1539 -61 c5 -3 9 -48 9 -100 0 -101 -1 -103 -57 -88
-21 6 -23 12 -23 80 0 40 -4 76 -10 79 -6 4 -10 -22 -10 -70 l0 -77 -32 7
c-18 4 -36 9 -40 12 -5 2 -8 53 -8 113 l0 109 81 -30 c45 -16 86 -32 90 -35z
m294 33 c22 -11 35 -22 28 -24 -12 -4 -113 43 -113 53 0 8 39 -5 85 -29z
m1282 -265 c-1 -53 -3 -7 -3 103 0 110 2 154 3 97 2 -57 2 -147 0 -200z
m-1402 -489 c-5 -51 -10 -63 -27 -69 -23 -7 -35 2 -40 30 -2 14 4 21 21 26 33
8 35 20 8 54 -27 33 -47 29 -40 -8 4 -18 10 -23 22 -19 13 5 14 3 4 -8 -10
-10 -16 -10 -25 -1 -10 10 -14 103 -16 381 l-3 368 48 9 48 9 3 -355 c2 -195
0 -383 -3 -417z m2189 746 c3 -17 6 -110 6 -205 l0 -174 -105 0 -105 0 0 205
0 205 99 0 99 0 6 -31z m266 -154 c0 -231 -18 -254 -22 -27 l-3 157 -90 0 -90
0 -3 -162 c-2 -136 -5 -163 -17 -163 -13 0 -15 29 -15 190 l0 190 120 0 120 0
0 -185z m864 99 c-6 -42 -14 -69 -23 -72 -11 -4 -12 2 -7 24 5 21 4 25 -4 14
-8 -12 -10 -9 -10 14 0 26 2 27 18 15 15 -12 15 -11 -1 8 -11 12 -28 20 -41
19 -26 -3 -86 -45 -86 -60 0 -6 4 -4 10 4 15 24 23 4 15 -39 -3 -22 -13 -42
-22 -45 -13 -5 -15 0 -10 31 l5 38 -18 -42 c-30 -68 -40 -54 -40 60 l0 102 84
-3 c47 -2 92 1 103 6 29 17 36 -1 27 -74z m-594 1 c0 -43 -4 -75 -10 -75 -5 0
-10 7 -10 16 0 10 -7 14 -17 12 -10 -2 -17 -10 -15 -16 1 -7 -10 -12 -28 -12
-23 0 -30 -4 -30 -20 0 -11 -6 -20 -14 -20 -10 0 -17 16 -22 45 -8 57 -33 62
-36 8 0 -21 -1 -44 -1 -50 1 -7 -3 -13 -8 -13 -5 0 -9 45 -9 100 l0 100 100 0
100 0 0 -75z m-3503 -72 c-2 -27 -3 -5 -3 47 0 52 1 74 3 48 2 -27 2 -69 0
-95z m800 -481 c-1 -114 -2 -20 -2 208 0 228 1 322 2 207 2 -114 2 -300 0
-415z m76 593 c49 -23 55 -29 61 -63 8 -48 8 -250 -1 -281 -5 -21 -10 -23 -49
-17 l-44 6 0 -39 c0 -41 13 -51 68 -51 22 0 22 0 22 -175 l0 -175 -60 0 -60 0
0 240 0 240 43 -6 42 -6 -3 98 c-4 105 -8 114 -54 114 -28 0 -28 0 -28 70 0
39 2 70 4 70 2 0 28 -11 59 -25z m1267 -10 l0 -25 -125 0 -125 0 0 25 0 25
125 0 125 0 0 -25z m2690 -140 c0 -136 -1 -145 -19 -145 -27 0 -31 18 -31 155
0 89 3 125 13 128 36 15 37 10 37 -138z m-4203 -17 c-2 -29 -3 -6 -3 52 0 58
1 81 3 53 2 -29 2 -77 0 -105z m2563 72 c0 -63 -2 -70 -20 -70 -18 0 -20 -7
-20 -80 0 -44 -4 -80 -8 -80 -4 0 -6 43 -4 95 3 58 1 95 -5 95 -6 0 -8 -21 -5
-49 6 -69 -6 -141 -24 -141 -11 0 -14 18 -15 83 -1 45 -1 85 0 90 0 4 -3 7 -9
7 -6 0 -10 -37 -10 -90 0 -73 -3 -90 -15 -90 -13 0 -15 23 -15 150 l0 150 75
0 75 0 0 -70z m844 48 c13 -61 12 -77 0 -82 -10 -4 -14 6 -16 37 l-1 42 -5
-45 c-3 -35 -6 -41 -12 -25 -8 19 -9 19 -9 -2 -1 -13 -6 -23 -11 -23 -15 0 0
82 19 102 22 23 30 22 35 -4z m735 -118 l2 -140 -26 0 -26 0 2 132 c0 73 3
136 6 140 2 5 13 8 23 8 17 0 18 -11 19 -140z m-69 100 c-5 -19 -5 -30 1 -30
6 0 9 -43 7 -107 -3 -103 -4 -108 -25 -111 -23 -3 -23 -3 -23 128 0 139 -2
132 47 149 1 1 -2 -12 -7 -29z m270 5 c0 -26 -14 -33 -25 -15 -9 14 1 40 15
40 5 0 10 -11 10 -25z m-3736 -26 c83 -40 86 -43 86 -76 0 -39 4 -39 -112 5
l-68 26 0 43 c0 24 2 43 4 43 2 0 43 -19 90 -41z m513 -11 c3 -7 -8 -2 -25 10
-17 13 -35 28 -39 34 -3 7 8 2 25 -10 17 -13 35 -28 39 -34z m393 42 c0 -5
-10 -11 -22 -11 l-23 -2 23 -4 c15 -3 22 -12 22 -26 0 -21 -4 -22 -92 -20 -51
1 -108 2 -126 2 -31 1 -33 3 -30 36 l2 35 123 0 c75 0 123 -4 123 -10z m-493
-507 c-1 -93 -3 -17 -3 167 0 184 2 260 3 168 2 -93 2 -243 0 -335z m2843 467
c0 -29 -1 -30 -49 -30 -31 0 -53 -5 -61 -15 -7 -9 -29 -15 -51 -15 -31 0 -39
4 -39 18 0 15 20 23 98 44 53 15 98 27 100 27 1 1 2 -12 2 -29z m-1147 -27 c3
-24 1 -43 -4 -43 -5 0 -9 21 -9 47 0 56 5 54 13 -4z m-2314 26 l31 -11 0 -104
c0 -63 -4 -104 -10 -104 -6 0 -10 28 -10 65 0 57 -2 65 -19 65 -18 0 -31 34
-31 81 0 22 -2 22 39 8z m720 -49 l61 -45 -2 -360 -3 -360 -2 351 -3 352 -70
51 c-39 28 -70 55 -70 61 0 13 10 8 89 -50z m32 23 c13 -16 12 -17 -3 -4 -10
7 -18 15 -18 17 0 8 8 3 21 -13z m3189 3 c0 -19 -7 -23 -53 -31 -31 -6 -36 -5
-31 8 10 28 84 47 84 23z m-4100 -27 c0 -14 -16 -11 -29 5 -10 12 -8 13 8 9
12 -3 21 -9 21 -14z m665 -213 c-1 -91 -3 -168 -6 -171 -3 -3 -21 -2 -39 1
l-32 7 7 167 c6 153 5 168 -11 174 -9 3 -18 5 -20 3 -2 -1 -6 -58 -10 -125 -4
-67 -9 -120 -12 -118 -2 3 -1 70 3 149 l7 145 57 -33 56 -33 0 -166z m2565
220 c0 -10 -37 -27 -110 -50 -123 -40 -123 -40 -118 -24 2 6 51 28 109 48 125
45 119 44 119 26z m-3270 -88 c0 -39 -4 -68 -10 -68 -6 0 -10 34 -10 83 0 56
3 77 10 67 5 -8 10 -45 10 -82z m2670 80 c0 -4 -18 -8 -39 -8 -22 0 -42 4 -45
8 -3 5 15 9 39 9 25 0 45 -4 45 -9z m-1360 -193 l0 -195 -125 0 -125 0 0 195
0 195 125 0 125 0 0 -195z m2270 86 c0 -63 -4 -112 -10 -116 -6 -4 -10 35 -10
109 0 71 4 116 10 116 6 0 10 -43 10 -109z m30 -1 c0 -67 -4 -110 -10 -110 -6
0 -10 43 -10 110 0 67 4 110 10 110 6 0 10 -43 10 -110z m57 -47 c-2 -32 -3
-8 -3 52 0 61 1 87 3 58 2 -29 2 -78 0 -110z m-3267 -51 l0 -163 -30 23 -30
22 0 114 0 114 28 -6 c20 -5 23 -4 12 4 -8 5 -23 10 -32 10 -15 0 -18 -14 -21
-117 -2 -111 -3 -108 -5 39 l-2 157 40 -17 40 -17 0 -163z m3250 93 c0 -87 -3
-105 -15 -105 -12 0 -15 18 -15 105 0 87 3 105 15 105 12 0 15 -18 15 -105z
m490 80 c0 -20 -5 -25 -24 -25 -13 0 -31 -3 -40 -6 -12 -5 -16 0 -16 19 0 25
5 28 68 36 7 0 12 -10 12 -24z m-4096 -1 c9 -23 7 -97 -3 -113 -17 -27 -31 1
-31 65 0 48 3 64 14 64 8 0 17 -7 20 -16z m2303 -106 c-2 -24 -4 -7 -4 37 0
44 2 63 4 43 2 -21 2 -57 0 -80z m282 101 c-28 -5 -63 -5 -85 0 -33 8 -26 9
46 9 78 0 81 -1 39 -9z m912 -87 c1 -51 -1 -95 -5 -99 -3 -3 -6 40 -6 97 0
127 8 129 11 2z m-271 59 c0 -25 -5 -30 -42 -40 -24 -7 -63 -11 -88 -9 l-45 3
-3 -95 c-3 -88 -9 -109 -34 -110 -5 0 -8 49 -8 108 l0 108 103 31 c56 17 105
31 110 32 4 0 7 -12 7 -28z m150 -75 c0 -103 0 -104 -25 -108 l-25 -5 0 83 c0
73 2 84 18 85 16 1 16 2 0 6 -35 9 -19 35 25 42 4 0 7 -46 7 -103z m45 -1 c0
-82 -3 -100 -15 -100 -12 0 -16 19 -18 103 -2 95 -1 103 15 100 16 -3 18 -15
18 -103z m-3783 76 c3 -3 8 -15 11 -26 4 -17 5 -17 6 4 1 19 5 22 24 17 12 -3
30 -6 40 -6 15 0 17 -10 17 -75 l0 -75 -52 4 c-29 2 -54 9 -56 16 -3 8 -7 9
-11 2 -3 -6 -18 -8 -34 -5 -27 5 -27 6 -27 85 l0 79 38 -7 c20 -3 40 -9 44
-13z m513 -36 c0 -39 -4 -50 -17 -53 -15 -3 -18 5 -18 53 0 48 3 56 18 53 13
-3 17 -14 17 -53z m284 -108 c0 -91 -3 -134 -9 -121 -5 12 -14 25 -21 29 -9 6
-10 -2 -5 -31 6 -32 5 -37 -6 -26 -9 9 -14 55 -16 162 l-4 150 31 -11 31 -11
-1 -141z m2191 84 c0 -47 -4 -60 -17 -66 -17 -6 -17 -7 1 -21 18 -13 12 -14
-55 -13 -58 2 -65 3 -34 8 27 4 41 12 43 24 6 31 -5 45 -31 40 -18 -4 -23 -10
-20 -24 3 -10 0 -19 -6 -19 -11 0 -15 13 -11 40 1 12 -1 12 -11 3 -7 -7 -12
-26 -12 -43 0 -24 -4 -30 -23 -30 -26 0 -34 22 -34 103 l0 57 105 0 105 0 0
-59z m1470 34 c0 -19 -7 -26 -27 -31 -16 -3 -34 -7 -40 -10 -9 -2 -13 7 -13
26 0 29 3 31 68 39 7 0 12 -10 12 -24z m-4345 -155 c-5 -112 -11 -160 -19
-157 -6 2 -14 21 -17 41 -6 39 -21 56 -49 56 -9 0 -27 8 -40 17 -14 10 -26 17
-27 15 -2 -1 -3 0 -3 3 0 3 0 12 0 21 0 14 10 15 75 9 l75 -7 0 88 c0 48 3 85
6 81 4 -3 3 -78 -1 -167z m832 118 c-2 -13 -4 -5 -4 17 -1 22 1 32 4 23 2 -10
2 -28 0 -40z m2498 -7 c-3 -5 -1 -12 4 -15 5 -4 12 2 14 11 3 10 4 -22 4 -72
l-1 -90 -6 70 -6 70 -2 -66 c-2 -49 -6 -68 -17 -73 -13 -4 -15 9 -15 84 0 75
3 90 16 90 8 0 13 -4 9 -9z m115 -66 c0 -43 -4 -75 -10 -75 -11 0 -14 133 -3
143 12 13 13 7 13 -68z m21 -54 c-7 -20 -9 -7 -9 54 l0 80 9 -54 c6 -34 6 -65
0 -80z m-51 44 c0 -60 -3 -75 -15 -75 -12 0 -15 14 -15 66 0 41 4 63 10 59 6
-3 10 1 10 9 0 9 2 16 5 16 3 0 5 -34 5 -75z m-2342 -9 c-2 -16 -9 -31 -15
-34 -9 -3 -13 11 -13 50 1 49 2 52 16 33 8 -11 14 -33 12 -49z m-664 46 c3 -5
-1 -9 -9 -9 -8 0 -12 4 -9 9 3 4 7 8 9 8 2 0 6 -4 9 -8z m706 -41 c-1 -25 -1
-25 -15 8 -19 42 -19 47 0 31 8 -7 15 -24 15 -39z m1877 17 c-3 -7 -5 -2 -5
12 0 14 2 19 5 13 2 -7 2 -19 0 -25z m-17 -2 c0 -15 -7 -26 -17 -29 -15 -4
-15 -5 2 -6 17 -1 20 -9 22 -56 1 -51 0 -55 -22 -55 -23 0 -24 4 -27 85 -3 82
-2 85 20 85 17 0 22 -6 22 -24z m-73 -18 c-3 -8 -6 -5 -6 6 -1 11 2 17 5 13 3
-3 4 -12 1 -19z m-3597 -49 c0 -81 -24 -77 -28 4 -2 46 0 57 13 57 12 0 15
-13 15 -61z m70 1 c0 -57 -1 -60 -25 -60 -24 0 -25 3 -25 60 0 57 1 60 25 60
24 0 25 -3 25 -60z m40 -6 c0 -41 -4 -63 -10 -59 -5 3 -10 33 -10 66 0 33 4
59 10 59 6 0 10 -29 10 -66z m3200 -25 c0 -57 -4 -88 -10 -84 -5 3 -10 12 -10
18 0 8 -22 13 -65 14 -51 1 -65 -1 -65 -13 0 -9 -11 -14 -35 -14 -28 0 -33 3
-28 16 4 12 2 15 -8 12 -8 -3 -13 -11 -11 -17 1 -7 -2 -10 -8 -6 -5 3 -10 35
-10 70 0 47 4 64 15 69 12 4 15 -5 17 -47 l2 -52 3 53 c2 28 7 52 11 52 4 0 5
-22 4 -50 -4 -46 -2 -50 18 -50 21 0 22 4 16 38 -3 20 -6 45 -6 56 0 15 -6 17
-40 14 -22 -2 -40 0 -40 4 0 5 56 8 125 8 l125 0 0 -91z m1367 55 c-4 -4 -376
-67 -454 -76 -23 -3 -33 0 -33 9 0 15 -3 14 230 54 102 18 201 35 220 38 25 5
36 3 38 -7 2 -7 2 -16 -1 -18z m-4141 -71 c17 -12 30 -15 79 -17 15 -1 21 -9
23 -34 4 -36 -3 -38 -92 -26 l-46 7 1 81 c1 66 3 74 9 42 4 -22 16 -45 26 -53z
m428 81 c27 -10 20 -44 -9 -44 -20 0 -25 5 -25 25 0 26 7 29 34 19z m2780
-168 l-7 -166 -28 0 -29 0 0 82 c0 84 22 157 48 158 8 0 12 17 12 52 0 28 3
49 6 46 3 -4 2 -81 -2 -172z m-2227 57 c-2 -21 -4 -4 -4 37 0 41 2 58 4 38 2
-21 2 -55 0 -75z m1523 41 c0 -62 -1 -65 -22 -62 -20 3 -23 10 -26 56 -3 50
-4 52 -33 52 -29 0 -29 -1 -31 -57 l-1 -58 -7 45 -7 45 -1 -42 c-3 -66 -22
-51 -22 16 0 67 -1 66 103 70 l47 1 0 -66z m568 -16 c2 -46 5 -91 8 -100 4
-12 0 -18 -10 -18 -14 0 -16 16 -16 100 0 120 15 135 18 18z m1258 -85 c-4 -9
-14 -11 -32 -7 -20 5 -31 2 -41 -11 -12 -17 -13 -17 -13 -2 0 21 -13 22 -30 3
-18 -23 -38 -108 -32 -144 3 -20 0 -32 -7 -32 -8 0 -11 47 -9 168 l3 167 80
10 80 10 3 -74 c2 -41 1 -80 -2 -88z m-2044 85 c2 -25 0 -44 -4 -41 -5 2 -7
30 -7 61 1 62 6 53 11 -20z m748 17 l0 -55 -105 0 -105 0 0 55 0 55 105 0 105
0 0 -55z m-780 -5 c0 -37 -4 -50 -14 -50 -11 0 -16 14 -19 48 -3 46 -3 46 -5
-11 -2 -54 -1 -58 18 -52 11 4 20 2 20 -4 0 -7 -46 -11 -135 -11 l-135 0 0 50
c0 43 -3 50 -20 50 -17 0 -20 -7 -20 -50 l0 -50 -120 0 -120 0 2 63 2 62 3
-58 c2 -32 8 -55 13 -52 5 3 6 30 3 60 l-6 55 267 0 266 0 0 -50z m897 28 c-3
-8 -6 -5 -6 6 -1 11 2 17 5 13 3 -3 4 -12 1 -19z m993 -2 c0 -21 -6 -25 -32
-28 l-33 -3 -3 -137 c-3 -184 -22 -183 -22 0 l0 138 -47 -6 -48 -5 0 -85 c-1
-144 -4 -187 -14 -170 -6 8 -10 30 -11 50 -2 73 1 70 -57 70 l-53 0 0 65 c0
75 -17 66 168 90 68 9 127 13 132 10 6 -4 10 3 10 14 0 12 2 21 5 21 3 0 5
-11 5 -24z m-3547 -3 c4 -2 7 -20 7 -39 0 -27 -4 -34 -19 -34 -40 0 -51 11
-51 51 0 38 1 39 28 33 15 -4 30 -9 35 -11z m661 1 c10 -4 16 -18 16 -40 0
-32 -2 -34 -35 -34 -33 0 -35 2 -35 34 0 40 19 53 54 40z m1176 -11 c0 -10 3
-28 6 -40 5 -17 2 -23 -10 -23 -12 0 -16 10 -16 40 0 22 5 40 10 40 6 0 10 -8
10 -17z m-1483 -60 c-2 -16 -4 -5 -4 22 0 28 2 40 4 28 2 -13 2 -35 0 -50z
m-470 -200 c-1 -49 -3 -9 -3 87 0 96 2 136 3 88 2 -49 2 -127 0 -175z m1493
218 c0 -22 -4 -43 -10 -46 -6 -4 -10 12 -10 39 0 25 5 46 10 46 6 0 10 -18 10
-39z m1660 24 c0 -8 -3 -15 -6 -15 -4 0 -51 -7 -106 -16 -93 -15 -121 -14
-104 3 6 6 167 39 204 42 6 1 12 -6 12 -14z m-2320 -20 c0 -14 -4 -25 -10 -25
-5 0 -10 11 -10 25 0 14 5 25 10 25 6 0 10 -11 10 -25z m3170 5 c0 -17 -7 -20
-40 -20 -33 0 -40 3 -40 20 0 17 7 20 40 20 33 0 40 -3 40 -20z m-340 -130 c0
-133 -1 -140 -20 -140 -19 0 -20 7 -20 134 0 131 2 142 33 145 4 1 7 -62 7
-139z m-3430 105 c13 -14 21 -25 18 -25 -2 0 -15 11 -28 25 -13 14 -21 25 -18
25 2 0 15 -11 28 -25z m3320 -105 l0 -130 -30 0 -30 0 0 130 0 130 30 0 30 0
0 -130z m-250 60 c0 -52 -2 -60 -19 -60 -11 0 -21 6 -24 13 -3 8 -10 6 -21 -8
-8 -11 -16 -15 -16 -7 0 6 -4 12 -10 12 -6 0 -10 -30 -10 -70 0 -56 -3 -70
-15 -70 -12 0 -15 20 -15 119 l0 120 48 4 c26 2 55 4 65 5 14 2 17 -7 17 -58z
m-2855 23 c-5 -10 -7 -24 -6 -30 1 -7 -5 -13 -14 -13 -9 0 -15 3 -13 8 23 47
32 61 36 57 2 -2 1 -12 -3 -22z m-190 -23 c6 0 19 -8 29 -19 16 -17 14 -18
-36 -17 l-53 1 -3 39 -3 39 27 -22 c15 -11 32 -21 39 -21z m1592 34 c-3 -3
-12 -4 -19 -1 -8 3 -5 6 6 6 11 1 17 -2 13 -5z m1303 -109 l0 -115 -45 0 -45
0 0 95 c0 76 -3 95 -14 95 -8 0 -18 -4 -21 -10 -3 -5 -17 -10 -31 -10 -23 0
-24 -2 -18 -40 6 -35 4 -40 -12 -40 -16 0 -19 -7 -17 -47 l2 -48 -9 45 c-5 25
-9 73 -9 108 l-1 62 48 1 c26 0 70 4 97 9 28 4 56 8 63 9 9 1 12 -28 12 -114z
m842 103 c2 -7 2 -61 0 -120 -4 -106 -4 -108 -28 -108 l-24 0 0 120 c0 120 0
120 24 120 13 0 26 -6 28 -12z m-3197 -18 c0 -10 -12 -16 -37 -18 -33 -3 -38
0 -38 18 0 18 5 21 38 18 25 -2 37 -8 37 -18z m3127 -95 c-3 -114 -3 -115 -28
-115 l-24 0 0 115 0 115 28 0 27 0 -3 -115z m-3345 82 c7 0 14 -25 18 -62 11
-99 10 -100 -68 -103 l-68 -3 3 28 c2 23 7 28 28 25 24 -3 24 -2 6 13 -15 11
-16 15 -5 15 8 1 2 8 -13 16 -38 20 -35 25 12 18 49 -8 52 1 5 20 -59 25 -37
49 35 38 19 -3 40 -5 47 -5z m1443 -77 c0 -53 -4 -90 -10 -90 -5 0 -10 14 -10
30 0 21 -5 30 -16 30 -9 0 -21 -13 -27 -30 -10 -26 -16 -30 -49 -30 -31 0 -38
4 -38 19 0 10 -7 24 -15 31 -13 11 -15 8 -15 -19 0 -24 -4 -31 -20 -31 -19 0
-20 7 -20 90 l0 90 110 0 110 0 0 -90z m-1193 20 c0 -46 -2 -50 -24 -50 -12 0
-23 -4 -23 -8 0 -4 -13 -16 -30 -25 l-30 -18 0 35 c0 36 23 52 33 24 7 -19 41
4 45 31 3 19 1 20 -23 11 -39 -15 -55 -12 -55 10 0 15 9 21 40 26 22 4 43 11
46 15 12 20 22 -4 21 -51z m363 35 c0 -18 -5 -25 -20 -25 -17 0 -20 -7 -20
-45 l0 -45 140 0 140 0 0 50 c0 28 -4 50 -10 50 -5 0 -10 -19 -10 -42 0 -32
-3 -39 -10 -28 -5 8 -10 26 -11 40 -1 20 -3 18 -9 -10 l-7 -35 -3 40 -3 40 -7
-50 -7 -50 -1 45 c-2 40 -5 46 -24 47 -13 0 -17 -1 -10 -4 17 -7 15 -60 -4
-67 -8 -3 -13 -2 -11 2 3 4 -4 16 -14 26 -17 17 -19 18 -19 3 0 -9 -7 -17 -15
-17 -11 0 -15 11 -15 40 l0 39 233 3 c127 2 247 2 265 0 l32 -3 -1 -77 c-1
-60 -3 -69 -9 -42 -4 19 -8 31 -9 26 -2 -15 -52 36 -63 64 l-10 25 -10 -25
c-5 -13 -16 -33 -25 -43 -13 -13 -14 -20 -5 -29 9 -9 12 -7 12 9 0 13 8 24 21
28 25 8 35 0 44 -37 7 -27 6 -28 -36 -30 -24 -1 -128 0 -231 2 l-188 3 -2 -59
-2 -59 -3 58 -4 57 -79 0 -80 0 0 -32 c0 -43 -10 -78 -22 -78 -5 0 -8 26 -6
58 l3 57 38 3 c36 3 37 4 37 44 0 27 -6 46 -17 55 -10 8 -13 12 -6 9 6 -4 15
-1 18 5 5 7 1 9 -11 7 -11 -2 -18 -9 -17 -16 4 -16 -43 -45 -58 -37 -6 4 -15
1 -20 -6 -11 -17 -12 -56 -1 -61 10 -4 2 -118 -9 -118 -5 0 -10 24 -11 53 l-2
52 -3 -52 c-4 -51 -5 -53 -34 -53 -29 0 -29 1 -29 54 0 54 0 55 33 58 31 3 32
4 35 57 l3 53 -35 -4 c-32 -4 -36 -1 -36 19 0 23 1 23 125 23 l125 0 0 -25z
m1099 -60 c-1 -49 -5 -85 -11 -85 -6 0 -8 7 -4 15 3 8 1 15 -4 15 -6 0 -10 -7
-10 -15 0 -8 -4 -15 -10 -15 -5 0 -10 12 -10 28 0 63 -12 102 -31 102 -17 0
-19 -8 -19 -65 0 -74 -19 -91 -21 -17 -1 45 -16 113 -18 82 -1 -12 -3 -12 -10
-2 -5 8 -17 12 -27 10 -16 -3 -19 -14 -22 -71 -2 -37 -7 -67 -13 -67 -6 0 -9
26 -8 65 1 36 0 67 -3 70 -7 8 -16 -54 -14 -98 1 -20 -2 -37 -6 -37 -5 0 -8
38 -8 84 l0 84 125 1 124 2 0 -86z m-2797 -81 l-9 -139 -2 150 c-1 101 2 146
9 139 7 -7 8 -57 2 -150z m596 150 c21 -6 22 -11 20 -98 l-2 -91 -3 83 c-4 82
-23 118 -23 42 0 -33 -3 -40 -20 -40 -17 0 -20 7 -20 48 0 62 4 67 48 56z
m-518 -202 c11 -86 15 -102 29 -98 29 9 226 19 219 11 -4 -4 -73 -13 -155 -21
-165 -15 -218 -21 -313 -34 -36 -6 -76 -10 -89 -10 -50 0 -12 9 99 24 63 9
126 18 140 21 l25 5 0 133 c0 72 4 141 9 152 10 22 11 20 36 -183z m88 191
c-10 -2 -26 -2 -35 0 -10 3 -2 5 17 5 19 0 27 -2 18 -5z m3354 -83 c2 -44 0
-80 -4 -80 -5 0 -8 22 -8 49 0 27 -3 63 -6 80 -4 19 -2 31 4 31 6 0 12 -33 14
-80z m38 0 c0 -47 -4 -80 -10 -80 -6 0 -10 33 -10 80 0 47 4 80 10 80 6 0 10
-33 10 -80z m-293 -27 c-2 -21 -4 -6 -4 32 0 39 2 55 4 38 2 -18 2 -50 0 -70z
m-3083 50 c3 -21 6 -54 6 -73 l-1 -35 -44 50 c-45 50 -45 50 -45 21 0 -41 -6
-30 -14 27 l-7 47 49 0 c49 0 49 0 56 -37z m581 27 c4 -6 -8 -10 -29 -10 -20
0 -36 5 -36 10 0 6 13 10 29 10 17 0 33 -4 36 -10z m1865 -50 c0 -33 -4 -60
-10 -60 -6 0 -10 27 -10 60 0 33 4 60 10 60 6 0 10 -27 10 -60z m97 -32 c-2
-18 -4 -4 -4 32 0 36 2 50 4 33 2 -18 2 -48 0 -65z m249 68 c3 -13 4 -40 1
-62 -3 -38 -4 -37 -5 9 -2 54 -22 65 -22 12 0 -47 -23 -46 -38 3 l-11 37 2
-47 c2 -33 -2 -48 -10 -48 -9 0 -13 18 -13 59 l0 59 45 0 c38 0 46 -3 51 -22z
m1384 -16 c0 -38 -15 -54 -26 -27 -5 14 11 67 21 67 3 0 5 -18 5 -40z m-47 24
c3 -3 1 -19 -5 -35 -8 -24 -15 -29 -44 -29 -31 0 -34 2 -24 19 10 19 48 51 61
51 3 0 8 -3 12 -6z m-1656 -51 c-3 -10 -5 -2 -5 17 0 19 2 27 5 18 2 -10 2
-26 0 -35z m347 0 c-9 -65 -14 -67 -14 -5 0 30 4 52 11 52 7 0 8 -16 3 -47z
m23 -30 c-2 -16 -4 -3 -4 27 0 30 2 43 4 28 2 -16 2 -40 0 -55z m730 -15 c-2
-18 -4 -4 -4 32 0 36 2 50 4 33 2 -18 2 -48 0 -65z m-2200 50 c-3 -7 -5 -2 -5
12 0 14 2 19 5 13 2 -7 2 -19 0 -25z m-785 2 l-23 -19 36 -7 c21 -4 35 -12 35
-21 0 -8 -4 -11 -10 -8 -5 3 -10 1 -10 -4 0 -6 7 -11 15 -11 12 0 15 -14 15
-70 0 -54 -4 -72 -15 -76 -12 -5 -15 -32 -15 -160 0 -117 -3 -154 -12 -154
-10 0 -13 38 -12 157 l0 158 -6 -130 c-5 -116 -6 -121 -8 -44 -1 47 -5 134 -9
192 -5 95 -8 107 -25 107 -12 0 -18 7 -18 24 0 13 -3 38 -6 55 l-6 31 48 0 49
-1 -23 -19z m2955 -57 c-2 -16 -4 -3 -4 27 0 30 2 43 4 28 2 -16 2 -40 0 -55z
m171 62 c11 -11 -13 -25 -43 -25 -44 0 -65 9 -65 27 0 13 9 14 52 9 29 -4 54
-9 56 -11z m-4328 -20 c0 -8 -6 -15 -14 -15 -17 0 -28 14 -19 24 12 12 33 6
33 -9z m675 -80 c24 -54 29 -85 12 -85 -21 0 -29 25 -32 110 -2 41 -1 59 1 40
3 -19 11 -48 19 -65z m705 55 c0 -37 2 -40 28 -40 41 0 49 -10 57 -66 6 -49 5
-52 -19 -58 -14 -3 -26 -10 -26 -15 0 -4 -22 -4 -50 2 l-50 10 0 63 c0 34 6
75 12 91 12 26 13 22 18 -52 l6 -80 2 93 c1 53 6 92 12 92 6 0 10 -18 10 -40z
m2544 14 c11 -28 6 -54 -9 -54 -10 0 -15 11 -15 35 0 36 13 47 24 19z m-1007
-26 c-3 -7 -5 -2 -5 12 0 14 2 19 5 13 2 -7 2 -19 0 -25z m-1897 -23 c0 -33
-4 -45 -15 -45 -11 0 -15 12 -15 45 0 33 4 45 15 45 11 0 15 -12 15 -45z
m3310 35 c0 -5 -25 -10 -55 -10 -30 0 -55 5 -55 10 0 6 25 10 55 10 30 0 55
-4 55 -10z m398 -17 c-2 -23 -8 -29 -35 -31 -31 -3 -33 -1 -33 27 0 29 3 31
36 31 33 0 35 -2 32 -27z m50 -6 c2 -19 -1 -27 -12 -27 -11 0 -16 10 -16 31 0
38 24 35 28 -4z m-2099 -3 c2 -2 -102 -4 -232 -4 -146 0 -237 4 -237 10 0 9
459 3 469 -6z m-1385 -10 c9 -25 7 -122 -3 -129 -5 -3 -11 28 -13 70 -3 72 3
93 16 59z m3046 6 c0 -6 -27 -10 -60 -10 -33 0 -60 4 -60 10 0 6 27 10 60 10
33 0 60 -4 60 -10z m-3803 -22 c-3 -8 -6 -5 -6 6 -1 11 2 17 5 13 3 -3 4 -12
1 -19z m1223 -44 c0 -70 -23 -71 -28 -1 l-3 46 -62 4 c-61 3 -60 3 16 5 l77 2
0 -56z m1200 45 c0 -5 -53 -8 -117 -7 -87 1 -106 3 -73 8 63 10 190 9 190 -1z
m505 1 c4 -7 -78 -10 -239 -10 -157 0 -246 4 -246 10 0 6 86 10 239 10 149 0
242 -4 246 -10z m235 -75 l0 -85 -100 0 -100 0 0 85 0 85 100 0 100 0 0 -85z
m-3129 32 c-8 -8 -11 -3 -11 19 1 25 2 27 11 11 8 -14 8 -22 0 -30z m1019 26
c0 -10 3 -35 6 -55 l7 -38 -62 0 -61 0 0 55 0 55 55 0 c46 0 55 -3 55 -17z
m1090 -14 l0 -32 -55 6 c-30 3 -55 2 -55 -3 0 -4 -8 -6 -19 -3 -15 4 -18 0
-14 -21 4 -21 2 -26 -16 -26 -12 0 -21 6 -21 15 0 10 -11 15 -35 15 -29 0 -36
4 -41 26 -5 18 -12 24 -28 22 -16 -2 -22 -11 -24 -40 -3 -32 -7 -38 -27 -38
-15 0 -26 7 -30 20 -6 20 -16 24 -44 20 -7 -1 -24 1 -37 4 -19 5 -24 13 -24
36 l0 30 235 0 235 0 0 -31z m1408 9 c-3 -7 -19 -13 -36 -12 -141 2 -182 5
-182 14 0 6 44 10 111 10 84 0 110 -3 107 -12z m400 5 c90 -5 112 -9 112 -21
0 -13 -21 -14 -157 -9 -87 4 -199 7 -250 7 -78 0 -91 2 -87 15 5 12 30 15 138
15 72 0 182 -3 244 -7z m-2804 -19 c11 -29 6 -34 -29 -34 -31 0 -35 3 -35 25
0 21 5 25 29 25 17 0 31 -6 35 -16z m1276 -54 l0 -70 -40 0 -40 0 0 60 c0 33
-4 60 -10 60 -6 0 -10 -27 -10 -60 l0 -60 -75 0 -75 0 0 70 0 70 125 0 125 0
0 -70z m138 63 c-10 -2 -18 -9 -18 -14 0 -5 -17 -10 -37 -11 -37 -1 -37 -1 -6
-5 21 -3 34 -11 38 -24 4 -10 11 -19 16 -19 5 0 9 -13 9 -30 l0 -30 -60 0 -60
0 0 70 0 70 68 -1 c37 -1 59 -3 50 -6z m72 -8 c0 -11 -10 -15 -37 -13 -38 1
-38 1 -5 5 18 2 30 9 27 14 -4 5 -1 9 4 9 6 0 11 -7 11 -15z m-2623 -17 c-3
-8 -6 -5 -6 6 -1 11 2 17 5 13 3 -3 4 -12 1 -19z m2683 -38 c0 -33 -4 -60 -10
-60 -6 0 -10 27 -10 60 0 33 4 60 10 60 6 0 10 -27 10 -60z m50 34 c0 -9 -7
-14 -17 -12 -25 5 -28 28 -4 28 12 0 21 -6 21 -16z m70 -9 c0 -22 -4 -25 -34
-25 -29 0 -33 3 -29 19 3 12 16 22 32 24 14 2 27 5 29 6 1 0 2 -10 2 -24z m50
-10 c0 -14 -4 -25 -10 -25 -5 0 -10 11 -10 25 0 14 5 25 10 25 6 0 10 -11 10
-25z m634 19 l46 -7 0 -41 c0 -40 -1 -41 -35 -42 -19 0 -38 -4 -42 -8 -4 -4
-8 -35 -8 -69 l0 -62 43 -15 c61 -21 57 -44 -5 -25 -27 8 -74 22 -105 31 l-58
17 0 113 0 114 59 0 c32 0 79 -3 105 -6z m-1424 -35 c0 -11 -7 -19 -16 -19
-11 0 -14 5 -10 16 3 9 6 20 6 25 0 6 5 7 10 4 6 -3 10 -15 10 -26z m1581 21
l49 0 0 -52 c0 -80 -8 -98 -40 -98 -16 0 -31 6 -33 13 -3 6 -6 -14 -6 -45 -1
-47 -4 -58 -17 -58 -15 0 -16 9 -11 65 5 49 3 63 -7 59 -8 -3 -11 -24 -10 -67
l3 -62 -9 65 c-12 89 -3 193 17 186 8 -3 37 -6 64 -6z m300 0 l109 0 0 -189 0
-189 -92 4 c-76 3 -121 12 -247 51 -85 26 -156 54 -159 61 -3 11 6 12 44 7 43
-6 349 -76 397 -91 16 -5 17 5 17 124 0 95 3 132 13 135 6 3 2 6 -11 6 -13 1
-30 8 -38 16 -17 17 -60 20 -69 5 -4 -6 7 -10 25 -10 l31 0 -7 -117 c-4 -65
-8 -120 -10 -122 -2 -2 -4 32 -4 77 0 49 -4 82 -10 82 -6 0 -20 21 -33 48 -27
58 -51 62 -55 10 -3 -39 -22 -54 -22 -18 0 17 -7 20 -49 20 l-49 0 -4 51 -3
51 59 -6 c32 -3 108 -6 167 -6z m-3734 -16 c-3 -3 -12 -4 -19 -1 -8 3 -5 6 6
6 11 1 17 -2 13 -5z m1539 -9 c17 -13 -4 -14 -189 -15 -136 0 -206 -3 -202
-10 4 -6 75 -10 181 -10 148 0 174 -2 174 -15 0 -12 -17 -15 -94 -15 -58 0
-97 4 -102 11 -4 8 -9 8 -17 0 -6 -6 -43 -11 -83 -11 l-72 0 -4 30 c-3 21 0
34 11 40 9 5 97 10 197 10 143 0 184 -3 200 -15z m2331 -182 c-2 -38 -3 -7 -3
67 0 74 1 105 3 68 2 -38 2 -98 0 -135z m-4030 181 c-3 -3 -12 -4 -19 -1 -8 3
-5 6 6 6 11 1 17 -2 13 -5z m413 -54 l0 -59 -37 -10 c-21 -6 -68 -17 -105 -24
l-68 -15 0 23 c0 18 7 25 28 29 121 23 143 28 139 33 -3 3 -37 0 -76 -6 -97
-15 -93 -17 -89 32 l3 42 60 6 c33 3 79 6 103 7 l42 2 0 -60z m1480 50 c0 -5
-16 -10 -35 -10 -19 0 -35 5 -35 10 0 6 16 10 35 10 19 0 35 -4 35 -10z m775
0 c3 -5 26 -10 51 -10 37 0 44 -3 44 -20 0 -18 -7 -20 -59 -20 l-60 0 1 30 c1
30 11 39 23 20z m-2488 -133 c-2 -23 -3 -1 -3 48 0 50 1 68 3 42 2 -26 2 -67
0 -90z m2693 113 c0 -5 -20 -10 -45 -10 -25 0 -45 5 -45 10 0 6 20 10 45 10
25 0 45 -4 45 -10z m-1712 -7 c-15 -2 -42 -2 -60 0 -18 2 -6 4 27 4 33 0 48
-2 33 -4z m-1798 -104 c0 -64 -3 -89 -12 -89 -10 0 -12 24 -10 95 4 121 22
116 22 -6z m73 24 c-5 -97 -8 -103 -33 -103 -19 0 -20 6 -20 90 l0 90 28 0 29
0 -4 -77z m717 7 c0 -64 -2 -70 -22 -75 -13 -3 -85 -21 -161 -39 l-138 -33 3
91 3 91 125 16 c69 9 140 17 158 18 l32 1 0 -70z m860 66 c0 -2 3 -11 6 -20 5
-14 -6 -16 -80 -16 -68 0 -86 3 -86 14 0 8 6 17 13 19 15 7 147 9 147 3z m50
-5 c0 -18 -18 -21 -30 -6 -10 13 -9 15 9 15 11 0 21 -4 21 -9z m1013 -1 c4 0
7 -7 7 -16 0 -15 -21 -16 -199 -12 -110 2 -203 6 -206 10 -4 4 -4 12 0 19 6 9
55 10 199 6 105 -4 194 -7 199 -7z m-1325 -7 c-16 -2 -40 -2 -55 0 -16 2 -3 4
27 4 30 0 43 -2 28 -4z m432 -3 c0 -5 -25 -10 -55 -10 -30 0 -55 5 -55 10 0 6
25 10 55 10 30 0 55 -4 55 -10z m-422 -117 l3 -103 -46 0 -45 0 0 106 0 105
43 -3 42 -3 3 -102z m32 75 c-1 -28 -2 -30 -11 -15 -6 10 -8 25 -5 33 9 24 16
16 16 -18z m17 -75 c-2 -21 -4 -4 -4 37 0 41 2 58 4 38 2 -21 2 -55 0 -75z
m1820 101 c-3 -3 -12 -4 -19 -1 -8 3 -5 6 6 6 11 1 17 -2 13 -5z m827 -47 l-4
-42 12 45 12 45 4 -38 c2 -20 2 -50 0 -65 -3 -27 -5 -28 -35 -20 -33 8 -33 9
-31 66 l1 57 7 -50 6 -50 8 52 c10 62 26 62 20 0z m-3891 36 c-7 -2 -21 -2
-30 0 -10 3 -4 5 12 5 17 0 24 -2 18 -5z m262 -193 c2 0 77 18 166 40 146 37
197 44 160 21 -7 -5 -85 -28 -172 -52 l-158 -44 -4 -80 c-1 -44 -3 10 -3 120
0 110 2 154 3 98 2 -57 6 -103 8 -103z m2855 190 c0 -5 -2 -10 -4 -10 -3 0 -8
5 -11 10 -3 6 -1 10 4 10 6 0 11 -4 11 -10z m80 -30 c0 -38 -2 -40 -30 -40
-28 0 -30 2 -30 40 0 38 2 40 30 40 28 0 30 -2 30 -40z m180 28 c23 -2 30 -19
30 -80 0 -45 -3 -58 -15 -58 -10 0 -15 11 -15 35 l0 35 -80 0 -80 0 0 41 0 42
73 -7 c39 -4 79 -7 87 -8z m785 2 c28 -7 28 -8 -12 -9 -23 0 -45 4 -48 9 -7
11 16 11 60 0z m-3962 -181 c-4 -4 -23 -10 -40 -14 -25 -5 -33 -3 -33 8 0 8 9
17 20 20 11 3 20 10 20 16 0 6 -9 11 -20 11 -15 0 -20 7 -20 25 0 18 -5 25
-20 25 -15 0 -20 7 -20 24 0 16 -7 27 -20 31 -28 9 -43 -3 -37 -31 7 -37 -6
-36 -24 2 -20 41 -21 40 111 52 l85 7 3 -84 c2 -46 -1 -87 -5 -92z m1813 158
c-3 -12 -6 -66 -6 -119 l0 -98 -36 0 c-27 0 -37 -5 -41 -20 -5 -18 -14 -20
-105 -20 l-100 0 -43 44 c-42 42 -45 43 -87 35 -24 -4 -98 -8 -165 -9 -105 0
-123 -2 -123 -16 0 -9 -6 -14 -12 -11 -9 2 -13 30 -13 93 l0 89 348 3 c220 1
347 6 347 12 0 6 -125 10 -345 10 -213 0 -345 4 -345 10 0 12 74 15 439 18
l293 2 -6 -23z m397 16 c184 -11 117 -23 -128 -23 -139 0 -235 4 -235 9 0 5
12 12 28 14 47 7 224 7 335 0z m1119 -18 c-2 -14 -8 -25 -13 -25 -5 0 -9 11
-9 25 0 14 6 25 14 25 9 0 12 -8 8 -25z m-438 -1 c22 -21 23 -156 1 -174 -18
-15 -99 -5 -132 16 -13 8 -24 10 -28 4 -3 -5 -29 -12 -57 -16 -38 -5 -52 -12
-56 -26 -4 -18 -12 -19 -101 -14 -53 2 -113 8 -133 11 l-38 7 0 79 c0 68 2 79
18 80 9 1 122 0 250 -1 209 -2 232 0 232 15 0 14 -24 16 -255 13 -197 -2 -256
0 -260 10 -3 9 55 12 270 12 235 0 276 -2 289 -16z m373 -127 c-2 -23 -3 -1
-3 48 0 50 1 68 3 42 2 -26 2 -67 0 -90z m708 123 c4 -6 -8 -10 -29 -10 -19 0
-38 5 -41 10 -4 6 8 10 29 10 19 0 38 -4 41 -10z m45 -75 c0 -55 -3 -73 -12
-71 -7 3 -26 7 -41 10 -35 8 -25 28 11 24 26 -3 27 -1 30 55 4 82 12 71 12
-18z m58 -8 c3 -70 1 -78 -15 -75 -21 4 -31 36 -32 106 -1 50 0 53 22 50 20
-3 22 -9 25 -81z m411 64 c11 -20 36 -199 29 -206 -2 -2 -14 -2 -26 2 -21 5
-22 11 -22 104 0 99 0 99 -25 99 -14 0 -25 5 -25 10 0 18 59 11 69 -9z m-509
-13 c0 -12 -82 -6 -87 7 -2 6 15 9 42 7 25 -2 45 -8 45 -14z m398 -19 c1 -19
7 -43 11 -54 27 -60 21 -65 -51 -44 l-38 10 19 37 c10 20 21 50 25 65 9 38 30
29 34 -14z m-3728 21 c0 -9 -15 -14 -143 -46 -60 -15 -91 -14 -75 1 5 5 184
53 206 54 6 1 12 -3 12 -9z m1678 -72 l3 -78 -116 0 -115 0 2 -27 c3 -46 -4
-120 -9 -98 -3 11 -9 24 -14 30 -5 5 -9 22 -9 37 l0 28 -110 0 -110 0 0 95 0
95 238 -2 237 -3 3 -77z m1792 7 c0 -62 -2 -73 -15 -69 -11 5 -15 23 -15 75 0
55 3 69 15 69 12 0 15 -15 15 -75z m-4327 25 c-7 -28 -13 -25 -13 6 0 14 4 23
9 20 5 -3 7 -15 4 -26z m3607 9 c82 -19 420 -114 588 -165 53 -16 82 -30 82
-40 0 -8 -5 -14 -10 -14 -6 0 -111 30 -233 66 -122 36 -260 77 -307 91 -47 13
-115 33 -152 44 -38 11 -68 24 -68 29 0 13 2 13 100 -11z m1060 -45 c0 -78
-20 -85 -34 -12 -10 52 -4 78 19 78 12 0 15 -13 15 -66z m-1460 -39 c0 -79 -3
-95 -15 -95 -13 0 -14 4 -5 20 13 25 5 40 -21 40 -17 0 -19 7 -19 65 l0 65 30
0 30 0 0 -95z m170 65 l0 -30 -75 0 -75 0 0 30 0 30 75 0 75 0 0 -30z m800 20
c11 -7 0 -10 -37 -10 -29 0 -53 5 -53 10 0 13 70 13 90 0z m-3320 -93 l0 -93
-87 -37 c-49 -20 -96 -39 -105 -43 -16 -6 -18 3 -18 105 l0 110 43 11 c23 6
62 18 87 25 82 25 80 27 80 -78z m-742 65 c2 -8 -9 -12 -32 -12 -40 0 -49 16
-13 23 30 6 40 3 45 -11z m4024 -11 c15 -13 -9 -28 -38 -24 -25 4 -31 9 -27
24 4 15 11 17 32 13 14 -4 29 -9 33 -13z m-488 -20 c87 -25 115 -41 116 -62 0
-3 -24 2 -52 12 -29 10 -84 24 -123 32 -50 10 -71 18 -73 30 -5 24 16 22 132
-12z m-3614 4 c10 -12 10 -15 -4 -15 -9 0 -16 7 -16 15 0 8 2 15 4 15 2 0 9
-7 16 -15z m570 -125 l0 -120 -75 0 c-71 0 -76 1 -85 25 -5 14 -7 31 -4 38 10
28 -22 40 -76 28 -71 -15 -72 -15 -68 26 l3 37 145 43 c80 23 148 42 153 42 4
1 7 -53 7 -119z m27 -47 c-2 -32 -3 -6 -3 57 0 63 1 89 3 58 2 -32 2 -84 0
-115z m2743 148 c0 -16 -8 -20 -37 -23 -38 -3 -38 -3 -41 -51 -3 -39 -6 -48
-18 -43 -9 3 -24 6 -35 6 -17 0 -19 8 -19 65 l0 65 75 0 c68 0 75 -2 75 -19z
m26 -8 c-10 -10 -19 5 -10 18 6 11 8 11 12 0 2 -7 1 -15 -2 -18z m-3284 -25
c-4 -4 -39 -14 -77 -22 -53 -11 -71 -12 -77 -3 -5 8 14 17 63 28 38 9 73 19
76 23 4 3 10 1 14 -6 5 -7 5 -16 1 -20z m3469 15 c13 -16 12 -17 -3 -4 -10 7
-18 15 -18 17 0 8 8 3 21 -13z m-43 0 c-10 -2 -26 -2 -35 0 -10 3 -2 5 17 5
19 0 27 -2 18 -5z m1021 -12 c19 -3 36 -12 39 -19 3 -10 -3 -11 -24 -6 -16 4
-35 7 -44 7 -18 0 -40 16 -40 29 0 6 8 7 18 3 9 -4 32 -10 51 -14z m-719 -8
l60 -16 0 -69 c0 -39 -4 -68 -8 -66 -4 2 -33 14 -65 27 l-57 25 0 58 c0 32 2
58 5 58 3 0 32 -7 65 -17z m-3630 -82 c0 -89 0 -89 -27 -95 -16 -4 -36 -9 -45
-12 -13 -4 -16 -1 -12 9 7 20 -13 31 -51 29 l-30 -1 35 17 c33 16 35 20 35 67
l0 49 45 12 c25 7 46 12 48 13 1 1 2 -39 2 -88z m3525 65 c6 -2 -6 -7 -25 -10
-44 -9 -348 -3 -375 7 -11 4 -5 0 14 -8 28 -13 67 -16 217 -13 l184 3 0 -202
c0 -257 10 -243 -163 -243 -83 0 -129 4 -140 13 -14 10 -17 35 -19 161 l-3
150 -57 33 c-57 33 -58 35 -58 78 l0 44 148 3 c128 3 245 -4 277 -16z m-2485
-28 c0 -40 -2 -43 -27 -43 -16 -1 -38 -4 -50 -8 -18 -7 -22 -3 -28 22 -12 56
0 71 56 71 l49 0 0 -42z m1800 26 l55 -6 -27 -110 c-15 -61 -25 -114 -22 -119
7 -12 -21 -11 -91 3 l-58 11 5 81 c3 45 13 98 22 120 13 32 19 37 38 32 13 -3
48 -9 78 -12z m-1416 -26 c4 -18 21 -70 40 -115 l33 -83 -66 -2 c-36 0 -50 -3
-31 -5 60 -7 68 -13 33 -28 -40 -17 -42 -30 -5 -31 15 0 57 -1 95 -2 l67 -2 0
-50 0 -50 -265 0 -265 0 0 39 c0 32 5 43 28 59 50 35 95 52 136 52 23 0 48 5
56 10 12 8 10 10 -10 10 -22 0 -31 13 -75 104 l-50 104 120 9 c66 6 127 11
136 11 11 1 19 -9 23 -30z m1277 14 c-6 -11 -19 -63 -31 -117 -11 -54 -22
-100 -25 -103 -5 -5 -245 -6 -249 -1 -2 2 -6 49 -9 105 l-5 100 108 -4 c60 -3
125 -1 145 2 34 7 36 8 19 21 -17 13 -16 14 19 15 34 0 37 -2 28 -18z m1726
12 c-3 -3 -12 -4 -19 -1 -8 3 -5 6 6 6 11 1 17 -2 13 -5z m-1479 -26 c-8 -13
-18 -56 -21 -97 -9 -114 -30 -118 -25 -5 3 92 15 124 45 124 14 0 14 -3 1 -22z
m942 -33 c85 -26 159 -50 163 -55 5 -4 7 -25 5 -47 l-3 -40 -100 37 c-55 20
-135 49 -177 64 -77 28 -78 29 -78 63 0 28 3 33 18 29 9 -3 87 -26 172 -51z
m-4007 25 c3 -13 0 -20 -9 -20 -8 0 -14 9 -14 20 0 11 4 20 9 20 5 0 11 -9 14
-20z m1728 -40 c108 0 109 0 109 -24 0 -12 -5 -38 -11 -57 -13 -37 -39 -72
-39 -51 0 7 -4 12 -10 12 -6 0 -10 -27 -10 -60 0 -33 -4 -60 -9 -60 -5 0 -22
7 -38 15 -15 8 -55 17 -88 21 -71 8 -51 22 32 23 44 1 54 -3 72 -25 23 -30 27
-19 9 23 -16 37 -18 39 -26 26 -21 -33 -82 49 -136 182 l-16 40 26 -32 25 -33
110 0z m757 -54 l3 -114 -123 -4 c-72 -2 -133 -9 -146 -17 -21 -11 -23 -11
-14 6 5 10 13 50 16 88 4 39 9 89 13 113 l5 42 122 0 121 0 3 -114z m-2568 89
c0 -8 -7 -15 -15 -15 -20 0 -19 -16 1 -24 22 -9 13 -47 -13 -57 -22 -8 -23 -6
-23 46 0 43 4 54 18 58 30 8 32 7 32 -8z m915 5 c-28 -12 -45 -12 -45 0 0 6
15 10 33 9 27 0 29 -2 12 -9z m33 -309 c-12 -9 -34 -24 -50 -35 l-29 -18 3
163 3 163 45 17 45 17 3 -146 c2 -139 2 -145 -20 -161z m1295 211 c3 -53 8
-104 12 -112 4 -13 -16 -15 -147 -13 -84 2 -154 7 -156 11 -1 5 4 15 13 22 14
11 14 15 1 29 -9 10 -16 44 -18 89 l-3 72 146 0 146 0 6 -98z m-888 48 c14
-22 34 -63 45 -90 l20 -50 -35 0 c-34 0 -34 1 -41 50 l-7 50 -46 1 c-25 0 -68
4 -96 8 -45 7 -47 8 -23 15 14 4 56 6 91 4 52 -2 63 0 55 10 -6 6 -19 12 -29
12 -11 0 -19 7 -19 15 0 10 10 15 30 15 24 0 35 -8 55 -40z m3122 34 c-3 -3
-12 -4 -19 -1 -8 3 -5 6 6 6 11 1 17 -2 13 -5z m40 -10 c-3 -3 -12 -4 -19 -1
-8 3 -5 6 6 6 11 1 17 -2 13 -5z m-4417 -14 c0 -14 -40 -32 -57 -25 -25 9 1
26 50 34 4 0 7 -3 7 -9z m3186 -22 l59 -23 -57 -3 c-48 -2 -66 2 -103 23 -25
15 -45 29 -45 32 0 11 89 -7 146 -29z m1271 26 c-3 -3 -12 -4 -19 -1 -8 3 -5
6 6 6 11 1 17 -2 13 -5z m-3708 -9 c-10 -9 -210 -95 -222 -95 -18 1 18 20 113
62 75 33 123 47 109 33z m3748 -1 c-3 -3 -12 -4 -19 -1 -8 3 -5 6 6 6 11 1 17
-2 13 -5z m-4212 -13 c-11 -4 -33 -11 -50 -14 l-30 -6 30 14 c17 8 39 14 50
14 l20 0 -20 -8z m1882 -28 c-3 -10 -5 -4 -5 12 0 17 2 24 5 18 2 -7 2 -21 0
-30z m2370 31 c-3 -3 -12 -4 -19 -1 -8 3 -5 6 6 6 11 1 17 -2 13 -5z m-3796
-306 c-8 -22 -186 -158 -206 -158 -3 0 -4 81 -3 180 l3 181 105 48 105 47 3
-136 c1 -76 -2 -149 -7 -162z m3836 296 c-3 -3 -12 -4 -19 -1 -8 3 -5 6 6 6
11 1 17 -2 13 -5z m-4267 -34 c0 -24 -6 -33 -26 -40 -37 -14 -43 -13 -39 10 2
11 -1 20 -7 20 -7 0 -6 6 2 15 20 24 30 17 20 -12 -9 -26 -9 -27 5 -9 8 11 15
26 15 33 0 7 7 13 15 13 10 0 15 -10 15 -30z m2775 8 c30 -17 54 -21 124 -22
l86 -1 3 -187 2 -188 -70 0 -70 0 -1 83 c-1 45 -4 123 -8 172 l-8 90 -1 -79
c-2 -66 -4 -77 -14 -64 -7 8 -30 27 -50 43 -38 27 -38 27 -38 101 0 41 2 74 4
74 3 0 21 -10 41 -22z m678 -18 c25 -12 27 -18 27 -72 l0 -58 -43 0 c-23 0
-53 -7 -65 -16 l-22 -15 0 85 c0 46 3 91 6 100 6 16 13 14 97 -24z m477 15
c49 -10 49 -11 38 -50 -8 -25 -18 -36 -39 -40 -47 -11 -69 9 -69 61 0 38 3 45
18 40 9 -2 33 -8 52 -11z m417 9 c-3 -3 -12 -4 -19 -1 -8 3 -5 6 6 6 11 1 17
-2 13 -5z m-4667 -33 c0 -4 -21 -11 -47 -14 -27 -4 -58 -9 -70 -13 -29 -8 -31
14 -3 24 30 11 120 14 120 3z m1228 -36 c3 -37 -2 -45 -43 -87 l-45 -46 0 -96
0 -96 -65 0 -65 0 0 173 c0 124 4 177 12 185 9 9 42 12 108 10 l95 -3 3 -40z
m630 -12 c9 -7 11 -13 6 -13 -17 0 -34 23 -33 45 1 20 1 20 6 0 3 -11 12 -26
21 -32z m2500 0 c-19 -27 -39 -48 -44 -48 -14 0 -16 38 -5 68 9 22 17 27 47
27 l36 0 -34 -47z m144 21 c117 -42 119 -44 113 -53 -8 -13 -205 55 -205 71 0
13 14 10 92 -18z m-4507 -4 c-6 -10 -98 -40 -124 -40 -41 0 24 25 127 49 2 1
0 -3 -3 -9z m115 -9 c0 -15 -23 -27 -116 -60 -131 -47 -144 -49 -144 -21 0 15
10 22 43 30 23 6 78 24 122 39 100 35 95 35 95 12z m245 -25 c-49 -18 -101
-36 -115 -40 -22 -6 -21 -5 5 10 39 23 154 63 180 63 11 0 -20 -15 -70 -33z
m145 27 c0 -6 -161 -72 -314 -129 -13 -5 -17 -3 -15 5 3 7 74 39 159 71 165
62 170 64 170 53z m1687 -40 c-3 -10 -5 -2 -5 17 0 19 2 27 5 18 2 -10 2 -26
0 -35z m-940 -5 c-3 -7 -5 -2 -5 12 0 14 2 19 5 13 2 -7 2 -19 0 -25z m-769
-368 c-12 -8 -85 -61 -163 -118 l-140 -103 -7 78 c-4 43 -7 150 -5 237 l2 160
165 66 165 66 3 -185 c3 -183 2 -186 -20 -201z m49 218 c-2 -35 -3 -9 -3 57 0
66 1 94 3 63 2 -32 2 -86 0 -120z m1294 158 c-6 -7 -17 -31 -25 -52 -12 -33
-15 -35 -15 -13 -1 33 21 79 38 79 10 0 11 -3 2 -14z m-1711 -48 l0 -53 -108
-36 c-59 -20 -115 -39 -124 -43 -15 -7 -18 -3 -18 22 0 26 4 30 38 36 20 3 53
6 72 7 32 0 33 1 12 9 -35 15 -13 43 60 79 35 16 64 30 66 30 1 1 2 -23 2 -51z
m1735 19 c0 -7 14 -11 35 -10 32 2 33 1 11 -8 -14 -5 -31 -7 -38 -5 -7 3 -13
-1 -13 -9 0 -20 -20 -29 -33 -15 -9 10 -9 11 1 6 7 -4 12 -2 13 6 1 7 2 18 4
23 1 6 3 16 3 24 2 16 17 5 17 -12z m-925 -2 c0 -8 -4 -15 -10 -15 -5 0 -7 7
-4 15 4 8 8 15 10 15 2 0 4 -7 4 -15z m2145 -37 c48 -30 70 -55 80 -87 l7 -24
-68 6 c-38 4 -255 7 -482 7 l-413 0 3 47 c3 45 5 48 38 55 74 17 266 26 525
24 l270 -2 40 -26z m-923 2 c29 -14 40 -42 32 -77 -6 -23 -8 -23 -164 -23
l-157 0 -6 42 c-3 24 -4 44 -3 46 2 2 26 9 52 17 58 16 206 13 246 -5z m2028
-9 c0 -6 -22 -45 -50 -88 -27 -43 -50 -83 -50 -90 0 -8 -46 -12 -156 -15 -149
-3 -157 -4 -174 -26 -16 -19 -18 -34 -13 -90 4 -47 11 -72 23 -82 10 -8 69
-54 132 -102 62 -48 155 -121 206 -162 51 -42 102 -76 112 -76 15 0 19 10 22
58 5 56 4 58 -36 95 -23 20 -76 64 -118 96 -70 54 -75 60 -60 74 25 22 116 47
200 54 l72 6 0 -52 c0 -33 -5 -53 -12 -55 -57 -16 -107 -39 -112 -51 -3 -9 11
-6 47 11 29 13 58 24 65 24 9 0 12 -42 12 -179 0 -99 -3 -186 -6 -195 -7 -17
-97 50 -332 248 -79 67 -171 141 -203 166 l-60 45 3 176 c3 158 5 179 22 198
18 20 28 21 243 21 133 0 223 -4 223 -9z m170 -16 c27 -13 81 -35 120 -49 39
-13 70 -27 69 -32 -3 -14 -63 -93 -71 -94 -3 0 -9 14 -13 30 -10 44 -24 36
-18 -10 5 -34 1 -44 -25 -74 -17 -19 -34 -42 -39 -51 -8 -13 -23 -8 -106 35
-56 30 -97 58 -97 66 0 30 105 204 123 204 4 0 30 -11 57 -25z m-2572 -12
c-10 -2 -26 -2 -35 0 -10 3 -2 5 17 5 19 0 27 -2 18 -5z m-2068 -42 c0 -10 -7
-24 -15 -31 -13 -11 -15 -8 -15 17 0 16 3 33 6 36 11 10 24 -3 24 -22z m405
11 c-13 -11 -234 -102 -248 -102 -29 0 23 29 121 67 103 40 147 52 127 35z
m-455 -37 c0 -24 -5 -35 -15 -35 -10 0 -15 11 -15 35 0 24 5 35 15 35 10 0 15
-11 15 -35z m460 -112 l-1 -128 -118 -67 c-65 -38 -123 -68 -130 -68 -8 0 -11
42 -11 143 l0 142 128 52 c70 29 128 52 130 53 1 0 2 -57 2 -127z m4550 89 c0
-23 -127 -182 -145 -182 -22 0 -19 10 31 75 24 33 57 76 72 96 28 37 42 41 42
11z m-2960 -2 c0 -6 -39 -10 -97 -10 -123 0 -138 -4 -164 -46 l-21 -34 -124 0
-124 0 0 50 0 50 265 0 c170 0 265 -4 265 -10z m470 -40 l0 -50 -60 0 -59 0
-7 35 -6 35 -78 0 c-43 0 -85 3 -94 6 -44 17 -1 24 144 24 l160 0 0 -50z m925
42 c43 -6 50 -11 53 -31 2 -12 1 -34 -2 -47 l-6 -24 -463 1 c-254 1 -467 4
-474 6 -8 3 -13 24 -13 54 l0 49 428 -1 c235 0 450 -4 477 -7z m-1395 -56 c0
-35 42 -45 119 -30 24 5 31 12 31 30 0 23 3 24 73 24 39 0 77 -4 83 -8 10 -6
20 -148 15 -199 -1 -10 -75 -13 -332 -13 l-331 0 20 33 c10 17 30 52 43 77 12
25 31 60 42 78 l19 32 109 0 c108 0 109 0 109 -24z m2936 -50 c-46 -65 -63
-82 -72 -73 -2 2 21 36 53 75 32 39 59 69 61 67 3 -2 -16 -33 -42 -69z m-4876
56 c0 -6 -107 -52 -123 -52 -4 0 -7 6 -7 14 0 9 17 16 45 20 25 4 45 11 45 17
0 5 9 9 20 9 11 0 20 -3 20 -8z m4404 -78 l59 -31 -145 -6 c-80 -3 -157 -11
-172 -17 -23 -8 -36 -5 -92 27 -35 21 -64 40 -64 44 0 14 45 17 200 15 152 -1
156 -2 214 -32z m-2095 -166 c1 -65 -2 -118 -7 -118 -4 0 -6 -34 -4 -76 3 -55
1 -75 -7 -70 -13 8 -14 122 -4 307 8 150 21 126 22 -43z m1859 48 l40 -25 -5
-63 c-3 -35 -7 -64 -8 -66 -3 -4 -198 149 -207 163 -4 5 -8 31 -8 57 l0 47 74
-44 c41 -24 92 -55 114 -69z m-2758 69 c0 -14 -4 -25 -10 -25 -5 0 -10 11 -10
25 0 14 5 25 10 25 6 0 10 -11 10 -25z m3125 -15 c28 -11 11 -16 -101 -28 -49
-6 -116 -20 -148 -31 l-58 -20 -37 27 c-48 35 -50 46 -9 53 49 9 330 9 353 -1z
m-4185 -73 c0 -7 -55 -45 -122 -85 -116 -69 -123 -72 -126 -50 -2 12 0 24 5
25 4 2 58 32 118 67 107 62 125 68 125 43z m1920 -17 c0 -20 -4 -20 -345 -20
-211 0 -345 4 -345 10 0 24 53 28 362 29 324 2 328 2 328 -19z m-710 -225 l0
-225 116 0 c116 0 116 0 110 -22 -4 -13 -9 -35 -12 -50 l-6 -28 -102 -2 -101
-2 98 -3 c53 -2 97 -7 97 -11 0 -4 -11 -43 -25 -87 -14 -44 -25 -86 -25 -92 0
-10 127 -13 598 -14 328 -1 631 -5 672 -9 41 -4 -315 -7 -792 -8 -478 -1 -868
2 -868 6 0 13 167 400 195 451 l25 46 -25 -30 c-44 -53 -124 -224 -197 -417
l-10 -28 -203 0 c-168 0 -205 -3 -215 -15 -11 -14 -80 -22 -80 -10 0 22 231
361 435 638 l100 136 108 1 107 0 0 -225z m1014 208 c29 -103 124 -539 151
-695 l6 -38 -336 0 c-184 0 -335 3 -335 8 0 4 7 45 15 92 8 47 15 86 15 88 0
1 20 2 43 2 48 0 93 27 157 94 l34 36 4 215 4 215 119 0 c103 0 118 -2 123
-17z m306 -23 c61 -119 290 -669 290 -696 0 -12 -34 -14 -210 -14 -209 0 -210
0 -214 23 -3 12 -12 63 -21 112 -23 132 -51 260 -96 438 -21 87 -39 162 -39
167 0 6 56 10 135 10 l135 0 20 -40z m382 -73 c139 -209 378 -604 378 -625 0
-9 -59 -12 -218 -12 l-219 0 -63 158 c-68 171 -225 525 -246 557 -8 11 -14 23
-14 27 0 5 69 8 153 8 l154 0 75 -113z m678 56 c0 -45 -5 -40 -13 10 -3 22 -2
35 4 32 5 -4 9 -22 9 -42z m423 -92 c77 -64 78 -65 75 -108 -2 -24 -6 -43 -9
-43 -4 0 -34 22 -68 49 -135 108 -149 127 -136 178 6 25 6 25 33 7 15 -10 62
-47 105 -83z m-2113 43 c0 -24 -5 -34 -15 -34 -15 0 -20 35 -9 64 10 25 24 8
24 -30z m-576 9 c-4 -15 -20 -55 -35 -88 l-28 -60 -1 88 0 87 35 0 c34 0 35
-1 29 -27z m536 -13 l0 -30 -255 0 -255 0 0 23 c0 13 3 27 7 30 3 4 118 7 255
7 l248 0 0 -30z m1950 -167 c91 -76 209 -174 262 -218 85 -71 118 -108 106
-120 -2 -2 -62 45 -133 106 -72 60 -194 163 -271 229 -78 66 -145 127 -148
136 -10 27 -7 39 7 22 6 -9 86 -79 177 -155z m-1930 106 c0 -8 -54 -11 -187
-9 -104 2 -222 2 -263 1 l-75 -1 -37 -94 c-21 -51 -38 -96 -38 -99 0 -4 137
-7 305 -7 l305 0 2 113 c1 112 1 112 8 37 4 -41 8 -99 9 -127 l1 -53 -325 0
-325 0 0 26 c0 14 21 70 47 125 l48 99 262 0 c188 0 263 -3 263 -11z m69 -181
c0 -45 -3 -57 -9 -43 -12 28 -12 105 0 105 6 0 10 -27 9 -62z m-221 -132 c0
-18 -3 -38 -7 -45 -8 -12 -281 -29 -281 -17 0 4 5 27 11 52 l11 44 133 0 133
0 0 -34z m157 -11 c-44 -40 -55 -45 -98 -45 -41 0 -48 3 -43 16 3 9 6 29 6 45
l0 29 93 0 92 -1 -50 -44z m-165 -72 c0 -5 -7 -47 -16 -95 l-16 -88 -154 0
c-106 0 -154 3 -154 11 0 6 12 49 26 95 l26 84 144 0 c79 0 144 -3 144 -7z
m-770 -203 c0 -6 -74 -10 -201 -10 -131 0 -198 3 -194 10 4 6 82 10 201 10
123 0 194 -4 194 -10z"/>
<path d="M3152 3138 c-15 -15 -16 -41 0 -36 13 5 31 48 20 48 -5 0 -13 -5 -20
-12z"/>
<path d="M2521 2746 c-7 -8 -11 -34 -9 -58 3 -40 5 -43 36 -46 31 -3 32 -3 32
38 0 68 -30 101 -59 66z"/>
<path d="M2745 2682 c-14 -9 -13 -34 2 -39 6 -2 14 1 18 6 9 15 -8 42 -20 33z"/>
<path d="M3008 2743 c-13 -3 -18 -15 -18 -44 0 -21 -1 -42 -2 -46 -2 -5 9 -9
25 -11 27 -3 27 -2 27 52 0 31 -3 55 -7 55 -5 -1 -16 -3 -25 -6z m9 -65 c-2
-13 -4 -5 -4 17 -1 22 1 32 4 23 2 -10 2 -28 0 -40z"/>
<path d="M3060 2690 c0 -33 4 -50 13 -50 8 0 11 15 9 50 -5 65 -22 65 -22 0z"/>
<path d="M2910 2685 c0 -32 3 -35 29 -35 26 0 28 3 22 28 -5 25 -6 25 -9 5 -5
-34 -22 -28 -22 7 0 17 -4 30 -10 30 -5 0 -10 -16 -10 -35z"/>
<path d="M3233 2755 c0 -44 2 -61 4 -37 2 23 2 59 0 80 -2 20 -4 1 -4 -43z"/>
<path d="M3183 2715 c0 -22 2 -30 4 -17 2 12 2 30 0 40 -3 9 -5 -1 -4 -23z"/>
<path d="M1638 2724 c4 -54 2 -64 -12 -64 -9 0 -16 -4 -16 -10 0 -5 7 -10 15
-10 12 0 15 -17 17 -87 l1 -88 8 85 c12 141 11 227 -4 233 -10 4 -12 -10 -9
-59z"/>
<path d="M2093 2590 c0 -36 2 -50 4 -32 2 17 2 47 0 65 -2 17 -4 3 -4 -33z"/>
<path d="M2243 2585 c0 -33 2 -45 4 -27 2 18 2 45 0 60 -2 15 -4 0 -4 -33z"/>
<path d="M2148 2523 c12 -2 32 -2 45 0 12 2 2 4 -23 4 -25 0 -35 -2 -22 -4z"/>
<path d="M3547 2573 c-4 -3 -7 -17 -7 -30 0 -14 -6 -23 -16 -23 -8 0 -12 -4
-9 -10 3 -5 15 -10 26 -10 16 0 19 7 19 40 0 41 -2 45 -13 33z"/>
<path d="M2750 2541 c0 -55 18 -61 23 -9 l4 43 1 -48 c2 -41 -1 -48 -15 -45
-9 2 -20 14 -25 28 -6 23 -7 23 -5 -5 2 -26 6 -30 36 -33 31 -3 33 -2 27 20
-3 13 -6 38 -6 56 0 25 -4 32 -20 32 -17 0 -20 -7 -20 -39z"/>
<path d="M2340 2522 l0 -51 85 1 c46 1 79 6 72 10 -7 4 -22 8 -34 8 -20 0 -23
5 -23 35 0 34 -1 35 -37 34 -36 -1 -36 -2 -9 -8 24 -5 29 -12 32 -39 4 -32 3
-33 -29 -30 -29 3 -32 7 -35 38 -6 58 -22 60 -22 2z"/>
<path d="M2610 2515 c0 -33 2 -35 33 -35 32 0 33 1 29 35 -2 19 -8 35 -13 35
-5 0 -6 -13 -2 -30 5 -26 3 -30 -16 -30 -16 0 -21 6 -21 24 0 13 6 27 13 29 7
3 5 6 -5 6 -14 1 -18 -7 -18 -34z"/>
<path d="M2372 2510 c0 -14 2 -19 5 -12 2 6 2 18 0 25 -3 6 -5 1 -5 -13z"/>
<path d="M2696 2495 c-3 -8 -1 -15 4 -15 6 0 10 7 10 15 0 8 -2 15 -4 15 -2 0
-6 -7 -10 -15z"/>
<path d="M2831 2404 c0 -11 3 -14 6 -6 3 7 2 16 -1 19 -3 4 -6 -2 -5 -13z"/>
<path d="M2524 2396 c-3 -8 -4 -29 -2 -48 3 -32 4 -33 56 -36 l52 -3 0 50 c0
39 -4 51 -15 51 -11 0 -14 -7 -9 -25 6 -23 4 -25 -30 -25 -29 0 -36 4 -36 19
0 12 8 21 23 24 19 4 18 4 -6 6 -16 0 -30 -5 -33 -13z m91 -61 c0 -5 -17 -11
-37 -13 -30 -3 -38 0 -38 13 0 13 8 16 38 13 20 -2 37 -7 37 -13z"/>
<path d="M3413 2113 c9 -2 25 -2 35 0 9 3 1 5 -18 5 -19 0 -27 -2 -17 -5z"/>
<path d="M705 2009 c-62 -12 -80 -18 -72 -25 6 -6 197 25 197 32 0 7 -72 2
-125 -7z"/>
<path d="M3598 2043 c12 -2 30 -2 40 0 9 3 -1 5 -23 4 -22 0 -30 -2 -17 -4z"/>
<path d="M2998 1753 c18 -2 45 -2 60 0 15 2 0 4 -33 4 -33 0 -45 -2 -27 -4z"/>
<path d="M2057 1313 c-11 -3 -16 -10 -13 -20 3 -8 6 -17 6 -19 0 -2 23 -4 50
-4 43 0 50 -3 50 -20 0 -18 -7 -20 -86 -20 l-86 0 16 23 c42 59 43 57 -38 57
-41 0 -81 -3 -90 -6 -20 -8 -21 -40 -1 -48 14 -5 14 -8 0 -29 -8 -13 -12 -27
-8 -30 3 -4 77 -7 164 -7 184 0 192 3 187 79 l-3 46 -65 2 c-36 0 -73 -1 -83
-4z m143 -58 c0 -39 -27 -45 -187 -43 l-148 2 148 3 147 4 0 23 c0 22 10 33
33 35 4 1 7 -10 7 -24z m-252 -22 c-10 -2 -26 -2 -35 0 -10 3 -2 5 17 5 19 0
27 -2 18 -5z"/>
<path d="M1649 934 c-17 -36 -29 -70 -27 -76 2 -5 17 25 35 66 17 42 29 76 26
76 -2 0 -18 -30 -34 -66z"/>
<path d="M1668 653 c34 -2 88 -2 120 0 31 2 3 3 -63 3 -66 0 -92 -1 -57 -3z"/>
<path d="M2117 643 c18 -2 50 -2 70 0 21 2 7 4 -32 4 -38 0 -55 -2 -38 -4z"/>
<path d="M1489 4180 c-50 -9 -109 -35 -109 -50 0 -19 20 -20 47 -3 40 27 258
30 328 6 34 -13 50 -23 49 -35 -1 -10 4 -14 13 -11 23 9 10 46 -22 64 -56 33
-201 47 -306 29z"/>
<path d="M3297 4177 c-59 -14 -105 -46 -93 -65 4 -7 20 -3 44 11 33 20 51 22
167 22 113 0 136 -3 173 -21 45 -23 65 -15 38 15 -37 41 -221 62 -329 38z"/>
<path d="M3237 4079 c7 -7 15 -10 18 -7 3 3 -2 9 -12 12 -14 6 -15 5 -6 -5z"/>
<path d="M1488 4063 c7 -3 16 -2 19 1 4 3 -2 6 -13 5 -11 0 -14 -3 -6 -6z"/>
<path d="M1748 4063 c7 -3 16 -2 19 1 4 3 -2 6 -13 5 -11 0 -14 -3 -6 -6z"/>
<path d="M3278 4063 c6 -2 18 -2 25 0 6 3 1 5 -13 5 -14 0 -19 -2 -12 -5z"/>
<path d="M3478 4063 c7 -3 16 -2 19 1 4 3 -2 6 -13 5 -11 0 -14 -3 -6 -6z"/>
<path d="M1538 4053 c12 -2 30 -2 40 0 9 3 -1 5 -23 4 -22 0 -30 -2 -17 -4z"/>
<path d="M1683 4053 c9 -2 25 -2 35 0 9 3 1 5 -18 5 -19 0 -27 -2 -17 -5z"/>
<path d="M3358 4053 c18 -2 45 -2 60 0 15 2 0 4 -33 4 -33 0 -45 -2 -27 -4z"/>
<path d="M1265 3859 c-19 -8 -19 -9 1 -6 15 1 42 -20 94 -78 100 -110 110
-108 15 4 -44 50 -81 91 -84 90 -4 0 -15 -5 -26 -10z"/>
<path d="M0 3842 c0 -10 199 -126 205 -120 3 2 -19 18 -48 34 -29 17 -76 45
-104 62 -29 17 -53 28 -53 24z"/>
<path d="M1591 3723 c1 -17 3 -21 6 -10 4 16 58 17 944 17 619 0 939 3 939 10
0 7 -322 10 -945 10 l-945 0 1 -27z"/>
<path d="M2462 3563 c-30 -6 -39 -30 -20 -50 12 -12 20 -13 36 -4 25 13 191
15 225 2 18 -7 30 -6 43 3 16 12 15 15 -11 32 -24 15 -50 19 -140 21 -60 1
-120 -1 -133 -4z m238 -22 c19 -7 -8 -10 -109 -10 -83 -1 -131 3 -125 8 21 21
183 23 234 2z"/>
<path d="M2618 3483 c6 -2 18 -2 25 0 6 3 1 5 -13 5 -14 0 -19 -2 -12 -5z"/>
<path d="M61 1572 c-30 -10 -56 -23 -58 -29 -5 -13 113 22 132 38 14 13 -13
10 -74 -9z"/>
<path d="M3860 1256 c51 -53 110 -103 110 -93 0 2 -37 37 -82 77 -78 69 -79
70 -28 16z"/>
<path d="M1151 1223 c-73 -74 -74 -74 -11 -18 99 89 105 95 96 95 -5 0 -43
-35 -85 -77z"/>
<path d="M3759 1242 c6 -12 17 -25 24 -29 19 -11 177 -179 421 -448 115 -127
249 -272 298 -322 89 -93 90 -93 139 -93 27 0 49 5 49 10 0 6 -20 10 -44 10
l-44 0 -153 168 c-364 398 -621 667 -673 704 l-28 21 11 -21z"/>
<path d="M914 1123 c-116 -88 -294 -232 -294 -239 0 -10 98 64 240 179 153
124 156 127 149 127 -3 0 -46 -30 -95 -67z"/>
<path d="M4756 1149 l-26 -31 0 -248 0 -248 31 -11 c18 -6 103 -11 195 -11
139 0 164 2 164 15 0 13 -27 15 -185 15 l-184 0 -7 37 c-4 21 -4 129 0 242 8
254 6 250 130 252 45 1 119 4 166 8 75 7 65 8 -87 9 l-171 2 -26 -31z"/>
<path d="M4971 1034 c-42 -30 -51 -71 -51 -239 0 -97 4 -155 10 -155 6 0 10
53 10 139 0 163 5 192 36 226 32 35 77 33 115 -4 24 -25 29 -27 29 -11 0 26
-52 60 -92 60 -18 0 -44 -7 -57 -16z"/>
<path d="M260 580 c-140 -105 -257 -198 -258 -207 -5 -21 -12 -26 265 189 211
164 264 208 251 208 -2 0 -118 -86 -258 -190z"/>
<path d="M677 552 c-103 -104 -187 -192 -187 -197 0 -12 260 246 332 328 27
31 48 57 46 57 -2 0 -88 -85 -191 -188z"/>
<path d="M4050 515 c0 -10 337 -475 366 -504 7 -8 16 -12 20 -9 7 7 -35 68
-220 318 -71 96 -129 180 -129 187 0 7 -9 13 -19 13 -10 0 -18 -2 -18 -5z"/>
<path d="M659 313 c-145 -150 -282 -303 -277 -309 5 -4 98 94 287 304 46 50
81 92 79 92 -2 0 -42 -39 -89 -87z"/>
</g>
</svg>